<svg id="レイヤー_1" data-name="レイヤー 1" xmlns="http://www.w3.org/2000/svg" viewBox="0 0 500 500"><defs><style>.cls-1{fill:#e6605f;}.cls-2{fill:#5a4d4f;}</style></defs><path class="cls-1" d="M137.43,279.45,134.05,276a.14.14,0,0,1,0-.19c10.28-10,25.92-19.73,35.87-22.69a.13.13,0,0,1,.16.13v5a.13.13,0,0,1-.08.13,95.16,95.16,0,0,0-32.39,21.12A.12.12,0,0,1,137.43,279.45Z"/><path class="cls-1" d="M303,277.72c-6.2-.29-11.73-.55-18.23-2.55A73.5,73.5,0,0,1,272.68,270c-8.31-4.66-26.61-10.61-31.22-11.2a.2.2,0,0,1-.17-.2V254a.13.13,0,0,1,.17-.12c12.69,2.63,20.61,6.09,29.94,10.21,10.06,4.44,14.32,7.75,31.77,8.57,21.26,1,50.25-10.73,58.26-33.18a.27.27,0,0,1,.37-.16l4,1.88a.31.31,0,0,1,.16.4C354.56,270.79,316.32,278.37,303,277.72Z"/><path class="cls-2" d="M281.59,276.55v29a.65.65,0,0,0,.74.64l35.16-5.32a.61.61,0,0,0,.51-.6l0-21.6c0-.06-.07-.05-.07-.05s-2.63.7-4.09.9c0,0-.07,0-.07.06v17a.58.58,0,0,1-.5.58l-26.74,4a.59.59,0,0,1-.68-.58V277.88a0,0,0,0,0,0-.06l-4.16-1.32S281.58,276.51,281.59,276.55Z"/><path class="cls-2" d="M313.76,201.87a.59.59,0,0,0-.3-.51l-57-32.3a.58.58,0,0,0-.62,0l-58.28,40.75a.58.58,0,0,0-.25.48l1,103.64a.58.58,0,0,0,.68.57l34.39-5.2a.59.59,0,0,0,.5-.58V231.09a.9.9,0,0,1,.77-.89l50.16-7.14a.89.89,0,0,1,1,.88v43.25a.09.09,0,0,1-.11.09,26.93,26.93,0,0,1-4.07-1.44.11.11,0,0,1-.07-.11V228.48a.58.58,0,0,0-.67-.58l-42.28,6a.58.58,0,0,0-.5.58v74.11l0,3.7a.73.73,0,0,1-.6.69l-42.7,6.46a.58.58,0,0,1-.68-.57l-1.05-110.76a.58.58,0,0,1,.25-.49l52.89-37a.58.58,0,0,0,0-1l-3.25-1.92a.61.61,0,0,0-.64,0l-55.71,38.67a.6.6,0,0,0-.25.49l1,106.16a.6.6,0,0,1-.58.6l-3.08,0a.59.59,0,0,1-.59-.58l-1-108.42a.58.58,0,0,1,.25-.48l50.38-35a.59.59,0,0,0-.05-1l-3.49-2a.58.58,0,0,0-.62,0l-52.71,36.73a.62.62,0,0,0-.26.49l1,106.17a.59.59,0,0,1-.58.59l-3.07,0a.58.58,0,0,1-.59-.58l-1-108.41a.6.6,0,0,1,.25-.49l56.27-39.21a1.49,1.49,0,0,1,1.6-.07l7.58,4.3a.62.62,0,0,0,.63,0l4-2.78a1.51,1.51,0,0,1,1.62-.06l7.23,4.25a.59.59,0,0,0,.64,0l4.06-2.84a1.52,1.52,0,0,1,1.6-.08l60.95,34.55a.6.6,0,0,1,.29.51L318,268.87a.08.08,0,0,1-.06.09,16.42,16.42,0,0,1-4.13.6"/></svg>