<svg id="レイヤー_1" data-name="レイヤー 1" xmlns="http://www.w3.org/2000/svg" viewBox="0 0 500 500"><defs><style>.cls-1{fill:#5a4d4f;}.cls-2{fill:#e6605f;}</style></defs><path class="cls-1" d="M144,278.6v23a.51.51,0,0,0,.59.5l27.84-4.21a.49.49,0,0,0,.41-.47l0-15.56c0-.05,0,0,0,0l-.51.07c-.43,0-2.31.11-2.73.15,0,0-.06,0-.06.05v12.44a.45.45,0,0,1-.39.46l-21.18,3.21a.47.47,0,0,1-.54-.46V279.65s0,0,0,0l-3.29-1S144,278.57,144,278.6Z"/><path class="cls-1" d="M293.25,251.25A.26.26,0,0,0,293,251h-5.07a.26.26,0,0,0-.29.23v43.33a2,2,0,0,0,2.2,1.78h11v-.44h-6.11a1.34,1.34,0,0,1-1.46-1.18Z"/><path class="cls-1" d="M328.48,251.82h-5.06a.27.27,0,0,0-.3.24v43.26a.28.28,0,0,0,.3.24h5.06a.27.27,0,0,0,.29-.24V252.06A.26.26,0,0,0,328.48,251.82Z"/><path class="cls-1" d="M369.23,241.09a.27.27,0,0,0-.29-.24h-5.06a.27.27,0,0,0-.3.24v7.69H342.92v.43h20.66v9.84H342.92v.43h20.66v15c0,.13.13.23.3.23h5.06a.26.26,0,0,0,.29-.23v-15h5.68v-.43h-5.68v-9.84h5.68v-.43h-5.68Z"/><path class="cls-1" d="M344.78,275.93a.27.27,0,0,0-.29-.24h-5.06a.27.27,0,0,0-.29.24v18.65a2,2,0,0,0,2.2,1.78h24v-.44H346.24a1.35,1.35,0,0,1-1.46-1.18Z"/><path class="cls-2" d="M401.22,250.14c3.77.54,7-2.46,6.39-6a5.42,5.42,0,0,0-4.62-4.33c-3.77-.53-7,2.46-6.39,6A5.44,5.44,0,0,0,401.22,250.14Z"/><path class="cls-1" d="M418.24,254.21H385.58v.43h31.23c.16,0,.25.15.16.25l-36.73,41.37.44.26,19.62-22h4.05c.11,0,.2.07.2.15v19.93a2,2,0,0,0,2.2,1.78h18.46v-.44H411.65a1.35,1.35,0,0,1-1.46-1.18V274.3a.27.27,0,0,0-.29-.24h-9.21l17.58-19.85"/><path class="cls-1" d="M458.48,294.88l-.14-19.08a.27.27,0,0,0-.3-.24H442.77V276h9.73a.18.18,0,0,1,.19.16l.14,18.57a2,2,0,0,0,2.19,1.77h18.47v-.43H459.94A1.34,1.34,0,0,1,458.48,294.88Z"/><polygon class="cls-1" points="451.07 244.79 431.09 296.69 431.59 296.86 451.56 244.96 451.07 244.79"/><path class="cls-1" d="M212.23,216.22a.87.87,0,0,1,.86.86v4.61a.87.87,0,0,1-.86.86h-1.75a.58.58,0,0,1-.58-.57.57.57,0,0,1,.57-.59h1.28V217.5H209l-3.95,4.95a.72.72,0,0,1-1,.16.58.58,0,0,1-.15-.86l3.4-4.25h-2.93a.64.64,0,1,1,0-1.28h3.36l.71-.9a.76.76,0,0,1,.34-.26H205a.85.85,0,0,1-.86-.86v-3.81a.86.86,0,0,1,.86-.87H212a.88.88,0,0,1,.86.87v3.81a.87.87,0,0,1-.86.86h-2.6s0,0,.06,0a.52.52,0,0,1,.18.8l-.26.33Zm-4.46-4.5v-1h-2.32v1Zm0,2.18v-1.07h-2.32v1.07Zm1.3-3.22v1h2.42v-1Zm0,2.15v1.07h2.42v-1.07Z"/><path class="cls-1" d="M229.69,220.16a.68.68,0,0,1,0,1,.63.63,0,0,1-.93,0l-3.35-3.7V222a.68.68,0,0,1-1.35,0v-4.41l-3.35,3.68a.62.62,0,0,1-.92,0,.73.73,0,0,1,0-1l4.3-4.72V213h-3.5a.67.67,0,0,1-.67-.65.68.68,0,0,1,.67-.67H224v-1.59a.68.68,0,0,1,1.35,0v1.59h3.52a.66.66,0,0,1,.66.67.65.65,0,0,1-.66.65h-3.52v2.38Z"/><path class="cls-1" d="M245.21,217a.87.87,0,0,1,.87.86v1a3,3,0,0,1-.46,1.6l-1.17,1.92a.83.83,0,0,1-1,.34.56.56,0,0,1-.29-.83l1.48-2.44a.62.62,0,0,0,.11-.37v-1H240a.64.64,0,0,1,.1.33v2.37s0,0,0,.09h1.3v-1.78a.62.62,0,0,1,1.24,0v2a.87.87,0,0,1-.86.88H237.2a.87.87,0,0,1-.86-.88v-2a.62.62,0,0,1,.62-.62.61.61,0,0,1,.6.62v1.78h1.32V218.4a.5.5,0,0,1,.1-.33h-1.14a.87.87,0,0,1-.86-.88v-6a.87.87,0,0,1,.86-.87h.58l.49-.8a.77.77,0,0,1,1-.29.62.62,0,0,1,.25.88l-.12.21h2.89a.87.87,0,0,1,.86.87v2.65a.87.87,0,0,1-.86.86h-4.6v.56h7.17a.58.58,0,0,1,.57.57.57.57,0,0,1-.57.55h-7.17V217Zm-2.78-5v-.57h-4.14V212Zm-4.14,1.6h4.14V213h-4.14Z"/><path class="cls-1" d="M262.17,211.59a.75.75,0,0,1,.36.93.63.63,0,0,1-.85.34l-4.39-2.1-4.43,2.15a.63.63,0,0,1-.85-.32.73.73,0,0,1,.34-.92l4.17-2a1.78,1.78,0,0,1,1.56,0ZM260,217.78a.85.85,0,0,1,.86.86v3.05a.85.85,0,0,1-.86.86h-4.61a.87.87,0,0,1-.86-.86v-.8a2.24,2.24,0,0,1-.34.23l-1.27.6a.57.57,0,0,1-.8-.36.83.83,0,0,1,.42-.94l.88-.43a.36.36,0,0,0,.21-.32V214a.87.87,0,0,1,.86-.88H260a.87.87,0,0,1,.87.88v2.51a.86.86,0,0,1-.87.86h-5v.49a.84.84,0,0,1,.42-.1Zm-1-5h-3.64a.5.5,0,0,1-.51-.5.51.51,0,0,1,.51-.51h3.64a.5.5,0,0,1,.51.51A.49.49,0,0,1,259.09,212.81Zm.44,1.39H255v.58h4.52ZM255,216.35h4.52v-.59H255Zm4.59,5.14v-2.65h-3.78v2.65Z"/><path class="cls-1" d="M278.46,210.79a.61.61,0,0,1-.6.62H270v9.4a1.88,1.88,0,0,1-.47,1.27l-.05.06a.65.65,0,0,1-.91,0,.69.69,0,0,1,0-1l.13-.15V211a.87.87,0,0,1,.86-.86h3.81v-.12a.69.69,0,0,1,.68-.68.67.67,0,0,1,.67.68v.12h3.21A.61.61,0,0,1,278.46,210.79Zm-.59,2.77h-2.8v.56h2a.87.87,0,0,1,.88.88v3.07a.88.88,0,0,1-.88.87h-2v.68h2.8a.6.6,0,0,1,0,1.19h-2.8V222a.67.67,0,1,1-1.33,0v-1.15h-2.8a.6.6,0,1,1,0-1.19h2.8v-.68h-2a.88.88,0,0,1-.86-.87V215a.87.87,0,0,1,.86-.88h2v-.56h-2.8a.6.6,0,1,1,0-1.19h2.8v-.19a.67.67,0,1,1,1.33,0v.19h2.8a.6.6,0,0,1,0,1.19Zm-4.13,1.68h-1.58V216h1.58Zm-1.58,2.57h1.58v-.7h-1.58Zm4.48-2.57h-1.57V216h1.57Zm-1.57,2.57h1.57v-.7h-1.57Z"/><path class="cls-1" d="M293.19,210.7a.72.72,0,0,1,.4.94l-3.58,9a2.1,2.1,0,0,1-2,1.35h-.94a.88.88,0,0,1-.85-1.14.9.9,0,0,1,1.35-.5l.78.49,3.42-8.63h-5.34a.71.71,0,0,1,0-1.42h6A.72.72,0,0,1,293.19,210.7Zm1.82-1.83a1.47,1.47,0,1,1-1.47,1.47A1.47,1.47,0,0,1,295,208.87Zm0,2a.52.52,0,0,0,.52-.52.52.52,0,1,0-1,0A.52.52,0,0,0,295,210.86Z"/><path class="cls-1" d="M309.36,211.09a.72.72,0,0,1,.72.71v9a.73.73,0,0,1-.72.74.72.72,0,0,1-.71-.64h-5.12a.72.72,0,0,1-1.44-.1v-9a.72.72,0,0,1,1.44,0v0h5.1v0A.72.72,0,0,1,309.36,211.09Zm-.73,2.13h-5.1v6.27h5.1Z"/><path class="cls-1" d="M319,211.84a.68.68,0,0,1-.69-.67.65.65,0,0,1,.65-.67h2.59a.72.72,0,0,1,.62.34.83.83,0,0,1,.07.7l-.38.9a.45.45,0,0,1-.57.23.42.42,0,0,1-.23-.57l.1-.26Zm2.36,3.71h-2.19a.78.78,0,0,1-.7-.47,1.3,1.3,0,0,1,0-1l.24-.62a.44.44,0,0,1,.82.33l-.16.36h2a.68.68,0,0,1,0,1.35Zm4.6-3.19a.77.77,0,0,1,.36,1l-3.4,7.34a2.26,2.26,0,0,1-2.05,1.32h-1.21a.89.89,0,0,1-.84-1.2,1,1,0,0,1,1.48-.46l.86.62,3.81-8.24A.76.76,0,0,1,325.91,212.36Zm.12-2.49.7,1.59a.45.45,0,0,1-.26.6.52.52,0,0,1-.64-.27l-.7-1.6a.43.43,0,0,1,.26-.58A.5.5,0,0,1,326,209.87Zm2,1.59a.45.45,0,0,1-.26.6.49.49,0,0,1-.62-.27l-.72-1.6a.44.44,0,0,1,.27-.58.48.48,0,0,1,.63.26Z"/><path class="cls-1" d="M341.23,220.3a.68.68,0,0,1,0,1.35h-5.18a.68.68,0,0,1,0-1.35h1.89v-4.6a.7.7,0,0,1,1.4,0v4.6Zm-4.9-5.32a.68.68,0,0,1,0-1.35H341a.68.68,0,0,1,0,1.35Z"/><path class="cls-1" d="M358.41,210.63a.71.71,0,0,1,.39.93l-3.64,9.21a2.15,2.15,0,0,1-2,1.36h-.41A.86.86,0,0,1,352,221a.8.8,0,0,1,1.24-.41l.37.3,3.29-8.28h-2.59l-1.22,3.1a1.81,1.81,0,0,1-1.66,1.12h-.21a.75.75,0,0,1-.74-1,.59.59,0,0,1,1-.28l.11.1,2.22-5.6a.71.71,0,1,1,1.32.52l-.26.64h2.59l.09-.25A.72.72,0,0,1,358.41,210.63Z"/><path class="cls-1" d="M374.64,215.87a.73.73,0,0,1,.31,1,.73.73,0,0,1-1,.33l-3.37-1.71-.07,0v5.93a.73.73,0,0,1-1.45,0V211.09h-.42a.7.7,0,0,1,0-1.39h.59a1.28,1.28,0,0,1,1.28,1.29v3.21a.69.69,0,0,1,.72,0Z"/><path class="cls-2" d="M29.24,281.7l-2.7-2.76a.11.11,0,0,1,0-.15c8.2-8,19.59-15.73,27.53-18.09a.1.1,0,0,1,.13.1v4a.1.1,0,0,1-.07.09c-9.32,3.57-16.94,9.24-24.75,16.84A.1.1,0,0,1,29.24,281.7Z"/><path class="cls-1" d="M169.45,219.46a.45.45,0,0,0-.24-.4L124.1,193.48a.47.47,0,0,0-.5,0L77.45,225.77a.46.46,0,0,0-.2.39L78,308.23a.47.47,0,0,0,.53.46l27.24-4.13a.46.46,0,0,0,.4-.46V242.6a.71.71,0,0,1,.61-.7l39.72-5.66a.71.71,0,0,1,.81.7v34.25a.08.08,0,0,1-.09.08,22.47,22.47,0,0,1-3.22-1.14.11.11,0,0,1-.06-.1V240.54a.46.46,0,0,0-.52-.46L110,244.84a.47.47,0,0,0-.4.46V304l0,2.93a.58.58,0,0,1-.47.55l-33.82,5.12a.47.47,0,0,1-.54-.45l-.83-87.72a.46.46,0,0,1,.2-.39L116,194.75a.47.47,0,0,0,0-.78l-2.58-1.52a.45.45,0,0,0-.5,0L68.72,223.1a.48.48,0,0,0-.2.38l.8,84.08a.46.46,0,0,1-.46.47l-2.43,0a.45.45,0,0,1-.47-.46l-.82-85.85a.49.49,0,0,1,.2-.39l39.9-27.69a.47.47,0,0,0,0-.79l-2.76-1.57a.48.48,0,0,0-.5,0L60.2,220.42a.44.44,0,0,0-.2.38l.8,84.08a.47.47,0,0,1-.46.47l-2.44,0a.47.47,0,0,1-.47-.46l-.81-85.85a.46.46,0,0,1,.2-.39l44.56-31a1.19,1.19,0,0,1,1.27-.06l6,3.4a.46.46,0,0,0,.49,0l3.16-2.2a1.2,1.2,0,0,1,1.29,0l5.72,3.36a.45.45,0,0,0,.5,0l3.22-2.25a1.21,1.21,0,0,1,1.27-.06l48.27,27.37a.46.46,0,0,1,.23.4V274a12.89,12.89,0,0,1-3.36.27"/><path class="cls-2" d="M276.22,262.59H264.29v-8.95a.26.26,0,0,0-.29-.24h-5.06a.26.26,0,0,0-.29.24v8.95H249.9l-.11-14.67H264.3v-.44H249.79l-.06-7.48c0-.13-.18-.23-.4-.23h-1.78c-1.69,0-3.05.8-3.05,1.78l.05,5.92h-9a5.58,5.58,0,0,0-4.66,2.46c-16.87,24.47-54.59,26.76-68.47,26.32-10.44-.34-17.3-3.44-25.32-6.83-7.51-3.16-13.77-6.05-23.9-8.15a.09.09,0,0,0-.11.09v3.8a.09.09,0,0,0,.06.08,127.55,127.55,0,0,1,22.32,7.91c8.37,3.65,14.67,6.33,27.33,7.19.83,0,1.19,0,2.09,0,12.6.4,49.52-2.06,68-30.18a5,5,0,0,1,4.22-2.26h7.4l.11,14.67H233.53a2,2,0,0,0-2.2,1.78v31.75a.27.27,0,0,0,.29.24h9.19l.4-.31,3.68-2.57,0,2.65c0,.13.18.23.4.23h4.44c.22,0,.4-.1.4-.23l-.05-6.31,8.69-6.11a.25.25,0,0,0,.15.06h1.46c2.15,0,3.89-1.41,3.89-3.15V263h7a1.34,1.34,0,0,1,1.46,1.18v30.56a1.34,1.34,0,0,1-1.46,1.18h-3.38v.44h7.67a2.6,2.6,0,0,0,2.82-2.28V264.37A2,2,0,0,0,276.22,262.59ZM240.6,295.92h-3a.53.53,0,0,1-.58-.47V264.18a1.34,1.34,0,0,1,1.46-1.18h6.22l.23,29.91Zm18-12.69-8.55,6L249.9,263h8.75Z"/></svg>