<svg id="レイヤー_1" data-name="レイヤー 1" xmlns="http://www.w3.org/2000/svg" viewBox="0 0 500 500"><defs><style>.cls-1{fill:#efe4d5;}.cls-2{fill:#e6605f;}</style></defs><path class="cls-1" d="M147.86,174.14a1,1,0,0,1,1.42-.36l4.75,2.85a1,1,0,0,1,.35,1.42l-1.07,1.79a.69.69,0,1,1-1.2-.69l.79-1.33-4-2.4-1.7,2.84,2.67,7.13a.88.88,0,0,1-.43,1.09.72.72,0,0,1-1-.38L146.17,180l-1.81,3a.77.77,0,1,1-1.32-.79l2.06-3.46-.48-1.29a.91.91,0,0,1-.05-.51l-2.39,4a1,1,0,0,1-1.43.36l-3.92-2.35a1,1,0,0,1-.36-1.42l4.37-7.3a1,1,0,0,1,1.42-.36l3.93,2.35a1,1,0,0,1,.35,1.42l-1.6,2.69s0,0,.07,0a.62.62,0,0,1,.93.31l.18.47ZM140.47,176l-1.07-.64L138,177.71l1.08.64Zm2.25,1.35-1.11-.67L140.19,179l1.1.66ZM140.2,174l1.08.64,1.49-2.5-1.07-.65Zm2.22,1.32,1.1.66,1.5-2.5-1.11-.66Z"/><path class="cls-1" d="M164.86,160.25a.84.84,0,0,1,.87.79.75.75,0,0,1-.74.83l-6,.14,4.13,3.57a.84.84,0,0,1,.07,1.15.82.82,0,0,1-1.13.08l-4-3.47.7,5.94a.74.74,0,0,1-.7.84.87.87,0,0,1-.91-.74l-.91-7.62-2.28-2L151.2,163a.79.79,0,0,1-1.12.09.81.81,0,0,1-.08-1.13l2.76-3.18-1.45-1.25a.8.8,0,0,1-.08-1.13.81.81,0,0,1,1.14-.1l1.45,1.26,2.76-3.2a.81.81,0,0,1,1.14-.08.79.79,0,0,1,.06,1.12L155,158.56l2.16,1.87Z"/><path class="cls-1" d="M176.38,145.09a1,1,0,0,1,1.46.15l.75.92a3.58,3.58,0,0,1,.78,1.84l.37,2.68a1,1,0,0,1-.69,1.08.67.67,0,0,1-.9-.55l-.47-3.4a.78.78,0,0,0-.18-.44l-.71-.88-4.4,3.58a.83.83,0,0,1,.33.23l1.81,2.22s0,.06,0,.09l1.22-1L174.44,150a.75.75,0,0,1,.11-1.05.73.73,0,0,1,1,.11l1.54,1.88a1,1,0,0,1-.14,1.47l-4.27,3.47a1,1,0,0,1-1.47-.16l-1.53-1.88a.75.75,0,0,1,.11-1.05.72.72,0,0,1,1,.12l1.34,1.65,1.23-1-.06-.07-1.8-2.22a.67.67,0,0,1-.16-.38l-1.06.87a1,1,0,0,1-1.47-.17l-4.56-5.6a1.05,1.05,0,0,1,.15-1.46l.55-.44-.15-1.12a.91.91,0,0,1,.68-1,.74.74,0,0,1,.89.64l.05.28,2.69-2.19a1.05,1.05,0,0,1,1.46.15l2,2.48a1,1,0,0,1-.15,1.46l-4.28,3.48.42.52,6.68-5.44a.7.7,0,0,1,1,.1.67.67,0,0,1-.11,1l-6.68,5.43.43.53ZM170,142.57l-.44-.53-3.85,3.13.43.53Zm-2.65,4.62,3.86-3.13-.44-.53-3.85,3.13Z"/><path class="cls-1" d="M191,128.59a.88.88,0,0,1,.92.76.75.75,0,0,1-.69.85l-5.84.37L182,135.41a.76.76,0,0,1-1.08.15.87.87,0,0,1-.17-1.16l3.19-4.55a2.12,2.12,0,0,1,1.64-.91Zm1.38,7.74a1,1,0,0,1,1.41.4l1.77,3.19a1,1,0,0,1-.4,1.41L190.36,144a1,1,0,0,1-1.41-.4l-.47-.84a1.69,1.69,0,0,1-.23.44l-1,1.38a.68.68,0,0,1-1,.09,1,1,0,0,1-.11-1.24l.68-1a.47.47,0,0,0,0-.46l-3.3-5.93a1,1,0,0,1,.39-1.43l5.74-3.2a1.05,1.05,0,0,1,1.42.42l1.47,2.64a1,1,0,0,1-.41,1.41l-5.24,2.91.28.52a1,1,0,0,1,.39-.35Zm-3.89-4.67-3.83,2.13a.6.6,0,1,1-.59-1l3.83-2.13a.58.58,0,0,1,.82.23A.6.6,0,0,1,188.52,131.66Zm1.27,1.2L185,135.5l.34.62,4.75-2.64Zm-3.5,4.9,4.75-2.64-.34-.62L186,137.14Zm7.82,2.72-1.55-2.79-4,2.21,1.55,2.78Z"/><path class="cls-1" d="M210.51,120a.73.73,0,0,1-.44.93l-9,3.09,3.67,10.67a2.29,2.29,0,0,1,0,1.63l0,.09a.78.78,0,0,1-1,.39.82.82,0,0,1-.4-1.06l.09-.21-3.93-11.41a1,1,0,0,1,.65-1.32l4.32-1.49,0-.13a.81.81,0,0,1,.51-1,.8.8,0,0,1,1,.51l.05.13,3.64-1.25A.74.74,0,0,1,210.51,120Zm.41,3.37-3.18,1.09.22.63,2.22-.76a1.05,1.05,0,0,1,1.34.65l1.2,3.5a1,1,0,0,1-.66,1.32l-2.22.77.27.77,3.18-1.09a.7.7,0,0,1,.9.43.72.72,0,0,1-.44.92l-3.18,1.09L211,134a.8.8,0,0,1-1.52.53l-.45-1.32-3.18,1.1a.71.71,0,1,1-.47-1.35l3.18-1.1-.26-.77-2.26.77a1,1,0,0,1-1.32-.64l-1.2-3.49a1,1,0,0,1,.64-1.34l2.25-.78-.21-.63-3.19,1.1a.71.71,0,1,1-.46-1.35l3.18-1.1-.07-.22a.8.8,0,1,1,1.51-.52l.08.22,3.18-1.09a.68.68,0,0,1,.89.44A.7.7,0,0,1,210.92,123.36Zm-4,3.52-1.79.62.28.81,1.79-.62Zm-.79,3.54,1.8-.62-.28-.79-1.79.61Zm4.08-4.67-1.77.61.28.81,1.77-.61Zm-.77,3.53,1.78-.61-.27-.8-1.78.61Z"/><path class="cls-1" d="M229.62,116a.89.89,0,0,1,.66,1l-2.58,11.36a2.52,2.52,0,0,1-2.08,2l-1.12.18a1.06,1.06,0,0,1-1.22-1.2,1.09,1.09,0,0,1,1.51-.85l1,.44,2.45-10.88-6.33,1a.85.85,0,0,1-.26-1.69l7.12-1.11A.86.86,0,0,1,229.62,116Zm1.83-2.5a1.76,1.76,0,1,1-1.47,2A1.75,1.75,0,0,1,231.45,113.52Zm.37,2.36a.63.63,0,0,0,.52-.72.63.63,0,1,0-1.24.2A.63.63,0,0,0,231.82,115.88Z"/><path class="cls-1" d="M250.83,115.72a.87.87,0,0,1,.84.88l-.19,10.77a.88.88,0,0,1-.88.87.86.86,0,0,1-.84-.78l-6.14-.11a.89.89,0,0,1-.88.75.88.88,0,0,1-.86-.9l.19-10.78a.87.87,0,0,1,1.74,0v0l6.12.11v0A.87.87,0,0,1,250.83,115.72Zm-.93,2.55-6.12-.11-.14,7.53,6.13.11Z"/><path class="cls-1" d="M272,120.21a.92.92,0,0,1,.19,1.25l-5.7,7.88a2.74,2.74,0,0,1-2.72,1.08l-1.43-.28a1.08,1.08,0,0,1-.72-1.62,1.18,1.18,0,0,1,1.86-.19l.87.93,6.39-8.84A.92.92,0,0,1,272,120.21Zm-6.17,2.7-2.57-.5a.93.93,0,0,1-.72-.72,1.53,1.53,0,0,1,.24-1.11l.43-.67a.54.54,0,0,1,.73-.16.54.54,0,0,1,.15.73l-.27.38,2.32.46a.81.81,0,0,1-.31,1.59ZM263.86,118a.82.82,0,0,1-.65-.95.78.78,0,0,1,.92-.63l3.06.59a.89.89,0,0,1,.65.55,1,1,0,0,1-.09.84l-.65,1a.52.52,0,0,1-.72.14.51.51,0,0,1-.14-.73l.18-.28Zm8.81-.69.46,2a.56.56,0,0,1-.45.65.62.62,0,0,1-.68-.47l-.46-2a.51.51,0,0,1,.44-.63A.59.59,0,0,1,272.67,117.3Zm2,2.34a.54.54,0,0,1-.44.65.6.6,0,0,1-.67-.47l-.48-2a.53.53,0,0,1,.45-.63.58.58,0,0,1,.68.45Z"/><path class="cls-1" d="M287.4,135.23a.8.8,0,0,1,.46,1.05.81.81,0,0,1-1,.46L281,134.5a.82.82,0,0,1-.46-1,.8.8,0,0,1,1-.47l2.12.81,2-5.16a.84.84,0,0,1,1.57.6l-2,5.17Zm-3.18-8.09a.81.81,0,0,1,.58-1.52l5.18,2a.81.81,0,0,1-.58,1.51Z"/><path class="cls-1" d="M311.49,134.9a.87.87,0,0,1-.18,1.2l-9.49,7.19a2.55,2.55,0,0,1-2.88.15l-.42-.25a1,1,0,0,1-.15-1.65,1,1,0,0,1,1.53.36l.2.53,8.53-6.44L306,134.37l-3.18,2.42a2.18,2.18,0,0,1-2.4.12l-.22-.13a.91.91,0,0,1-.16-1.45.71.71,0,0,1,1.18.33l.06.17,5.76-4.37a.85.85,0,1,1,1,1.35l-.66.49,2.66,1.62.25-.19A.86.86,0,0,1,311.49,134.9Z"/><path class="cls-1" d="M324.1,152.82a.86.86,0,0,1-.5,1.13.88.88,0,0,1-1.14-.48l-1.69-4.21a.2.2,0,0,1,0-.08l-4.7,5.35a.87.87,0,0,1-1.3-1.15l8.13-9.28-.38-.33a.84.84,0,0,1-.06-1.18.81.81,0,0,1,1.15-.07l.54.46a1.54,1.54,0,0,1,.14,2.18l-2.54,2.9a.85.85,0,0,1,.67.54Z"/><path class="cls-2" d="M190.32,342.42h-10V335a.23.23,0,0,0-.25-.2h-4.22a.22.22,0,0,0-.24.2v7.47h-7.3l-.1-12.25h12.11v-.36H168.25l-.05-6.24c0-.11-.15-.2-.33-.2h-1.49c-1.41,0-2.54.67-2.54,1.49l0,4.94h-11v.36h11l.09,12.25h-9.29a1.7,1.7,0,0,0-1.84,1.49v26.5a.23.23,0,0,0,.25.2h7.66l.34-.26,3.08-2.15v2.22c0,.1.15.19.34.19h3.7c.19,0,.34-.09.34-.19l0-5.27,7.24-5.1a.21.21,0,0,0,.13,0h1.22c1.79,0,3.25-1.18,3.25-2.63v-14.7h5.85a1.13,1.13,0,0,1,1.23,1v25.51a1.12,1.12,0,0,1-1.22,1H183.4v.37h6.39a2.17,2.17,0,0,0,2.36-1.91V343.9A1.69,1.69,0,0,0,190.32,342.42Zm-29.78,27.82h-2.49a.45.45,0,0,1-.49-.39v-26.1a1.12,1.12,0,0,1,1.22-1H164l.18,25-3.54,2.49Zm15.11-10.59-7.14,5-.16-21.91h7.3Z"/><path class="cls-1" d="M205.44,333a.22.22,0,0,0-.24-.2H201a.23.23,0,0,0-.25.2v36.16a1.7,1.7,0,0,0,1.84,1.49h9.2v-.37h-5.1a1.12,1.12,0,0,1-1.22-1Z"/><path class="cls-1" d="M234.84,333.43h-4.22a.23.23,0,0,0-.25.2v36.11a.23.23,0,0,0,.25.2h4.22a.23.23,0,0,0,.25-.2V333.63A.23.23,0,0,0,234.84,333.43Z"/><path class="cls-1" d="M268.86,324.47a.22.22,0,0,0-.24-.19h-4.23a.22.22,0,0,0-.24.19v6.42H246.9v.37h17.25v8.2H246.9v.37h17.25v12.49c0,.11.1.19.24.19h4.23a.22.22,0,0,0,.24-.19V339.83h4.74v-.37h-4.74v-8.2h4.74v-.37h-4.74Z"/><path class="cls-1" d="M248.45,353.55a.22.22,0,0,0-.24-.19H244a.22.22,0,0,0-.24.19v15.57a1.69,1.69,0,0,0,1.84,1.49h20v-.37H249.67a1.12,1.12,0,0,1-1.22-1Z"/><path class="cls-2" d="M295.56,332a4.37,4.37,0,1,0-3.86-3.62A4.52,4.52,0,0,0,295.56,332Z"/><path class="cls-1" d="M309.76,335.42H282.51v.37h26.07c.13,0,.2.12.13.2l-30.66,34.54.37.21,16.37-18.38h3.39a.15.15,0,0,1,.16.13v16.63a1.69,1.69,0,0,0,1.83,1.49h15.41v-.37H304.27a1.12,1.12,0,0,1-1.22-1V352.19a.22.22,0,0,0-.24-.19h-7.7l14.68-16.58"/><path class="cls-1" d="M343.35,369.37l-.11-15.92a.23.23,0,0,0-.25-.2H330.25v.36h8.11a.15.15,0,0,1,.16.13l.12,15.5a1.68,1.68,0,0,0,1.83,1.48h15.41v-.36H344.57A1.13,1.13,0,0,1,343.35,369.37Z"/><polygon class="cls-1" points="337.17 327.56 320.5 370.88 320.91 371.03 337.58 327.71 337.17 327.56"/><path class="cls-2" d="M137.43,279.45,134.05,276a.14.14,0,0,1,0-.19c10.28-10,25.92-19.73,35.87-22.69a.13.13,0,0,1,.16.13v5a.13.13,0,0,1-.08.13,95.16,95.16,0,0,0-32.39,21.12A.12.12,0,0,1,137.43,279.45Z"/><path class="cls-2" d="M303,277.72c-6.2-.29-11.73-.55-18.23-2.55A73.5,73.5,0,0,1,272.68,270c-8.31-4.66-26.61-10.61-31.22-11.2a.2.2,0,0,1-.17-.2V254a.13.13,0,0,1,.17-.12c12.69,2.63,20.61,6.09,29.94,10.21,10.06,4.44,14.32,7.75,31.77,8.57,21.26,1,50.25-10.73,58.26-33.18a.27.27,0,0,1,.37-.16l4,1.88a.31.31,0,0,1,.16.4C354.56,270.79,316.32,278.37,303,277.72Z"/><path class="cls-1" d="M281.59,276.55v29a.65.65,0,0,0,.74.64l35.16-5.32a.61.61,0,0,0,.51-.6l0-21.6c0-.06-.07-.05-.07-.05s-2.63.7-4.09.9c0,0-.07,0-.07.06v17a.58.58,0,0,1-.5.58l-26.74,4a.59.59,0,0,1-.68-.58V277.88a0,0,0,0,0,0-.06l-4.16-1.32S281.58,276.51,281.59,276.55Z"/><path class="cls-1" d="M313.76,201.87a.59.59,0,0,0-.3-.51l-57-32.3a.58.58,0,0,0-.62,0l-58.28,40.75a.58.58,0,0,0-.25.48l1,103.64a.58.58,0,0,0,.68.57l34.39-5.2a.59.59,0,0,0,.5-.58V231.09a.9.9,0,0,1,.77-.89l50.16-7.14a.89.89,0,0,1,1,.88v43.25a.09.09,0,0,1-.11.09,26.93,26.93,0,0,1-4.07-1.44.11.11,0,0,1-.07-.11V228.48a.58.58,0,0,0-.67-.58l-42.28,6a.58.58,0,0,0-.5.58v74.11l0,3.7a.73.73,0,0,1-.6.69l-42.7,6.46a.58.58,0,0,1-.68-.57l-1.05-110.76a.58.58,0,0,1,.25-.49l52.89-37a.58.58,0,0,0,0-1l-3.25-1.92a.61.61,0,0,0-.64,0l-55.71,38.67a.6.6,0,0,0-.25.49l1,106.16a.6.6,0,0,1-.58.6l-3.08,0a.59.59,0,0,1-.59-.58l-1-108.42a.58.58,0,0,1,.25-.48l50.38-35a.59.59,0,0,0-.05-1l-3.49-2a.58.58,0,0,0-.62,0l-52.71,36.73a.62.62,0,0,0-.26.49l1,106.17a.59.59,0,0,1-.58.59l-3.07,0a.58.58,0,0,1-.59-.58l-1-108.41a.6.6,0,0,1,.25-.49l56.27-39.21a1.49,1.49,0,0,1,1.6-.07l7.58,4.3a.62.62,0,0,0,.63,0l4-2.78a1.51,1.51,0,0,1,1.62-.06l7.23,4.25a.59.59,0,0,0,.64,0l4.06-2.84a1.52,1.52,0,0,1,1.6-.08l60.95,34.55a.6.6,0,0,1,.29.51L318,268.87a.08.08,0,0,1-.06.09,16.42,16.42,0,0,1-4.13.6"/></svg>