<svg id="レイヤー_1" data-name="レイヤー 1" xmlns="http://www.w3.org/2000/svg" viewBox="0 0 500 500"><defs><style>.cls-1{font-size:20px;fill:#333435;font-family:Ronde-B-Square-90ms-RKSJ-H, Ronde-B;}.cls-2{fill:none;stroke:#333435;stroke-miterlimit:10;stroke-width:2px;}</style></defs><line class="cls-2" x1="286.41" y1="425.45" x2="211.47" y2="425.45"/><path class="cls-2" d="M390.84,258.18c1.8-27.65-20.92-71.84-44.36-70.24-.67-50.84-38.82-70.23-62.85-66.75,0-18.06-48.62-30.1-60.31-4.51-29.72-1.51-50.33,16.69-49.53,51.18-39,1.5-63,39.14-64.82,90.32H391.76"/><path class="cls-2" d="M398.23,265.57c-23.87,71.68-51.11,121.59-111.82,139.55-.15,0-74.61-.34-74.61-.34-63-16.54-86.47-59.23-109.29-139.21Z"/><ellipse class="cls-2" cx="154.26" cy="219.37" rx="14.79" ry="16.63"/><circle class="cls-2" cx="184.29" cy="236.46" r="6.93"/></svg>