<svg id="レイヤー_1" data-name="レイヤー 1" xmlns="http://www.w3.org/2000/svg" viewBox="0 0 500 500"><defs><style>.cls-1,.cls-2{fill:#333435;}.cls-2{font-size:20px;font-family:Ronde-B-Square-90ms-RKSJ-H, Ronde-B;}.cls-3,.cls-4{fill:none;stroke-miterlimit:10;}.cls-3{stroke:#333435;stroke-width:3px;}.cls-4{stroke:#fff;stroke-width:2px;}</style></defs><path class="cls-1" d="M440.41,236H59.19a2.12,2.12,0,0,1-1.8-3.23L126,121.64A3.45,3.45,0,0,1,129,120h241.7a3.45,3.45,0,0,1,2.94,1.64L442.2,232.73A2.12,2.12,0,0,1,440.41,236Z"/><path class="cls-3" d="M99.74,221.18V430.56a2.05,2.05,0,0,0,2.07,2.05l296-2.24a2.06,2.06,0,0,0,2-2.06v-206"/><polyline class="cls-3" points="191.36 432.63 191.36 293.93 308.24 293.93 308.24 430.35"/><polyline class="cls-3" points="196.37 430.69 196.37 298.73 303.23 298.73 303.23 430.69"/><rect class="cls-3" x="324.83" y="260.4" width="60.25" height="50.73"/><rect class="cls-3" x="357" y="264.73" width="24.22" height="42.07"/><rect class="cls-3" x="328.69" y="264.73" width="24.74" height="42.07"/><path class="cls-4" d="M123.41,147.61c3.89-3.88,10.36-5.18,14.24-5.18,7,0,13.58,5,20.72,5.18A16.53,16.53,0,0,0,170,143.73"/><path class="cls-4" d="M174.47,147.61c3.88-3.88,10.35-5.18,14.24-5.18,7,0,13.58,5,20.71,5.18a16.55,16.55,0,0,0,11.66-3.88"/><path class="cls-4" d="M225,147.61c3.88-3.88,10.36-5.18,14.24-5.18,7,0,13.58,5,20.72,5.18a16.54,16.54,0,0,0,11.65-3.88"/><path class="cls-4" d="M277.28,147.61c3.89-3.88,10.36-5.18,14.24-5.18,7,0,13.58,5,20.72,5.18a16.54,16.54,0,0,0,11.65-3.88"/><path class="cls-4" d="M329.58,147.61c3.88-3.88,10.35-5.18,14.24-5.18,7,0,13.58,5,20.71,5.18a16.57,16.57,0,0,0,11.66-3.88"/><path class="cls-4" d="M97.82,181.71c3.88-3.88,10.35-5.17,14.24-5.17,7,0,13.58,5,20.71,5.17a16.57,16.57,0,0,0,11.66-3.88"/><path class="cls-4" d="M148.87,181.71c3.88-3.88,10.36-5.17,14.24-5.17,7,0,13.58,5,20.72,5.17a16.54,16.54,0,0,0,11.65-3.88"/><path class="cls-4" d="M199.39,181.71c3.89-3.88,10.36-5.17,14.24-5.17,7,0,13.58,5,20.72,5.17A16.54,16.54,0,0,0,246,177.83"/><path class="cls-4" d="M251.68,181.71c3.89-3.88,10.36-5.17,14.25-5.17,7,0,13.58,5,20.71,5.17a16.53,16.53,0,0,0,11.65-3.88"/><path class="cls-4" d="M304,181.71c3.88-3.88,10.36-5.17,14.24-5.17,7,0,13.58,5,20.72,5.17a16.54,16.54,0,0,0,11.65-3.88"/><path class="cls-4" d="M355.17,181.71c3.89-3.88,10.36-5.17,14.25-5.17,7,0,13.57,5,20.71,5.17a16.53,16.53,0,0,0,11.65-3.88"/><path class="cls-4" d="M123.41,218.09c3.89-3.88,10.36-5.18,14.24-5.18,7,0,13.58,5,20.72,5.18A16.53,16.53,0,0,0,170,214.21"/><path class="cls-4" d="M174.47,218.09c3.88-3.88,10.35-5.18,14.24-5.18,7,0,13.58,5,20.71,5.18a16.55,16.55,0,0,0,11.66-3.88"/><path class="cls-4" d="M225,218.09c3.88-3.88,10.36-5.18,14.24-5.18,7,0,13.58,5,20.72,5.18a16.54,16.54,0,0,0,11.65-3.88"/><path class="cls-4" d="M277.28,218.09c3.89-3.88,10.36-5.18,14.24-5.18,7,0,13.58,5,20.72,5.18a16.54,16.54,0,0,0,11.65-3.88"/><path class="cls-4" d="M329.58,218.09c3.88-3.88,10.35-5.18,14.24-5.18,7,0,13.58,5,20.71,5.18a16.57,16.57,0,0,0,11.66-3.88"/><path class="cls-4" d="M382,218.09c3.88-3.88,10.36-5.18,14.24-5.18,7,0,13.58,5,20.72,5.18a16.54,16.54,0,0,0,11.65-3.88"/><path class="cls-4" d="M72.78,218.09c3.89-3.88,10.36-5.18,14.25-5.18,7,0,13.58,5,20.71,5.18a16.53,16.53,0,0,0,11.65-3.88"/></svg>