<svg id="レイヤー_1" data-name="レイヤー 1" xmlns="http://www.w3.org/2000/svg" viewBox="0 0 500 500"><defs><style>.cls-1{font-size:20px;fill:#333435;font-family:Ronde-B-Square-90ms-RKSJ-H, Ronde-B;}.cls-2{fill:none;stroke:#333435;stroke-miterlimit:10;stroke-width:2px;}</style></defs><path class="cls-2" d="M240.07,151A7.41,7.41,0,0,1,247.2,149c6.62,1.75,19.23,5,22.17,5,4,0,11.29-5.36,30.32-8.08,7.07-1,18.09.17,21.38.6l9.9,1.28a3.37,3.37,0,0,0,2-.36c3.93-2.08,19.16-10.09,26-12.87a4.37,4.37,0,0,1,5.48,1.71c.9,1.63.52,3.35-1.36,7.53-1.73,3.83-4,10-5.38,14.09-1,2.73.58,22.05.58,22.05a6.11,6.11,0,0,0,1.57,4.09l5.22,6c6.24,6.93,18.33,26,18.33,26,3.44,5.72,27.22,36,27.22,36,1.28,1.71,13.08,16,15.64,19.43a17.17,17.17,0,0,1,3.32,8.22s.83,10.1,1.49,20.38a121.67,121.67,0,0,1-2.68,34.52c-2.23,9.88-4.56,22.08-3.41,25.53,2,6.06,8.09,15.46,8.09,15.46s6.06,4.75,8.08,8.79,2,10.11-2,12.13-10.1,2-10.1,2H411.52c-7.74-1-11.78-3-13.8-5.05-1-1-.92-3.63-1.51-5a1.51,1.51,0,0,0-1.68-.86l-8.94,1.79-38.4,2H317.31a104,104,0,0,1-13-.81L283.07,388a28.39,28.39,0,0,0-9.15.34L271,389a130.65,130.65,0,0,1-25.72,2.55H238s0,2-4,4c-2.81,1.41-15.44,1.84-22.84,2a44.28,44.28,0,0,1-13.74-1.82c-2.14-.65-3.84-1.41-3.84-2.17a2,2,0,0,0-2-2l-17.2,1.91a1.2,1.2,0,0,0-1.06,1.08c-.18,1.8-.94,5.6-4,7.11s-11,.8-15.14.33c-1.69-.2-11.13-.33-13.47-7.65-.89-5.38.14-17.9.14-17.9a.59.59,0,0,0-.8-.66c-2.05.8-1.51,1.35-6.21,2.55a48.71,48.71,0,0,1-8.57,1.36c-7.78.54-25.44,1.76-26.26,1.76,0,0-51,6.07-63.08-2a16.2,16.2,0,0,1-3.7-3.51,25.26,25.26,0,0,1-3.55-24.13c3.46-9.54,11.49-17.1,22.84-23.22a33.63,33.63,0,0,1,19.16-2.19c3,.53,45.19,13.75,45.19,13.75a16.49,16.49,0,0,0,11.27-1.86,9.12,9.12,0,0,0,1.76-1.28c1.4-1.4,11.53-14.44,17.62-22.32a108.94,108.94,0,0,1,13.31-14.51c8.12-7.32,20-15.52,39.81-19.77,18.75-4,28.88-3,34.36-2l23.78,5.07a2,2,0,0,0,2.68-1.69l.9-6.65c.53-3.82,1.63-14.4,2.45-18.11,2.35-10.65,1.59-14.93-2.37-19.12C249.77,225.47,245,204.31,249,188.89l2.62-7.87a4.7,4.7,0,0,0-.18-3.42l-6.81-15c-1.16-2.56-6.58-9.62-4.55-11.64Z"/><path class="cls-2" d="M236,384.47h0a27.58,27.58,0,0,0-20.34-10.92"/><line class="cls-2" x1="209.75" y1="391.5" x2="211.77" y2="398.32"/><line class="cls-2" x1="223.9" y1="391.5" x2="225.17" y2="396.94"/><path class="cls-2" d="M151.13,365.22l9.82-2.8a18.34,18.34,0,0,1,8.74-.33h.08a28,28,0,0,0,13.84-1.91L215.81,347"/><line class="cls-2" x1="417.93" y1="393.52" x2="420.14" y2="398.57"/><line class="cls-2" x1="428.03" y1="393.52" x2="429.05" y2="398.57"/><path class="cls-2" d="M347.19,294.48c6.06,2,40.42,14.15,40.42,16.17,0,1.13.63,13,1.19,23.21a233.26,233.26,0,0,0,3.6,30c1.15,6.13,2.27,12.15,2.53,13.55a2.51,2.51,0,0,0,4,1.54h0c3.31-2.48,8.84-5.2,13-5.67,7.75-.89,12.66,1,12.66,1"/></svg>