<svg id="レイヤー_1" data-name="レイヤー 1" xmlns="http://www.w3.org/2000/svg" viewBox="0 0 500 500"><defs><style>.cls-1{font-size:20px;font-family:Ronde-B-Square-90ms-RKSJ-H, Ronde-B;}.cls-1,.cls-3{fill:#333435;}.cls-2,.cls-4{fill:none;stroke:#333435;stroke-miterlimit:10;stroke-width:2px;}.cls-4{stroke-dasharray:20 20;}</style></defs><path class="cls-2" d="M47.69,171c74.46,25.71,132.06,25,171.86,18.94,44.28-6.71,69-20.31,121.66-23.31A357.66,357.66,0,0,1,453,178.26"/><path class="cls-3" d="M160.25,415.81H82.78a4.11,4.11,0,0,1-4.1-4.1V215.85H81.3V411.71a1.49,1.49,0,0,0,1.48,1.49h77.47l1.07-1.16-1,.9-38.62-41a4.55,4.55,0,0,1-1.24-3.13V215.85h2.62V368.78a2,2,0,0,0,.53,1.34l38.62,41a2.77,2.77,0,0,1-2,4.66Z"/><path class="cls-3" d="M436.52,415.81H359.05a4.11,4.11,0,0,1-4.1-4.1V215.85h2.61V411.71a1.49,1.49,0,0,0,1.49,1.49h77.47l1.06-1.16-.95.9-38.62-41a4.55,4.55,0,0,1-1.24-3.13V215.85h2.62V368.78a1.92,1.92,0,0,0,.53,1.34l38.62,41a2.77,2.77,0,0,1-2,4.66Z"/><path class="cls-3" d="M345,415.81H267.56a4.11,4.11,0,0,1-4.1-4.1V215.85h2.62V411.71a1.49,1.49,0,0,0,1.48,1.49H345L346.1,412l-1,.9-38.62-41a4.55,4.55,0,0,1-1.24-3.13V215.85h2.61V368.78a2,2,0,0,0,.53,1.34l38.62,41a2.77,2.77,0,0,1-2,4.66Z"/><path class="cls-3" d="M253.55,415.81H176.08a4.11,4.11,0,0,1-4.1-4.1V215.85h2.61V411.71a1.49,1.49,0,0,0,1.49,1.49h77.47l1.06-1.16-1,.9-38.62-41a4.55,4.55,0,0,1-1.24-3.13V215.85h2.61V368.78a2,2,0,0,0,.53,1.34l38.62,41a2.76,2.76,0,0,1-2,4.66Z"/><path class="cls-4" d="M50,143.37c74.46,25.71,132.06,25,171.86,18.94,41.75-6.32,66.08-18.78,112.88-22.69q4.26-.36,8.79-.62"/></svg>