<svg id="レイヤー_2" data-name="レイヤー 2" xmlns="http://www.w3.org/2000/svg" viewBox="0 0 1075.78 981.26"><defs><style>.cls-1{fill:#333435;}</style></defs><path class="cls-1" d="M1142.72,729.16l-42.57,11.89a.61.61,0,0,1-.65-.21l-27.29-35.38a.51.51,0,0,0-.62-.16l-71.28,32.29a.5.5,0,0,0-.23.69l20.37,41a.5.5,0,0,1-.18.65L825.69,883.19a.58.58,0,0,0-.26.23L743.8,1001.49a1.13,1.13,0,0,1-.92.48l-530.82-1a.32.32,0,0,1-.3-.41l49.72-152.11a1.22,1.22,0,0,0,0-.63l-16.35-76.66a1.74,1.74,0,0,1,0-.39V735.44a2.85,2.85,0,0,1,0-.4l23.5-130.76a1.25,1.25,0,0,1,.14-.41l15.34-29.67a.54.54,0,0,0,0-.55l-52.69-88.9a5.15,5.15,0,0,1-.49-1.13l-34.6-116.56a.39.39,0,0,1,.38-.5H228.5a.6.6,0,0,1,.58.43l25.48,87.67a.5.5,0,0,0,.66.33l18.47-6.81a.5.5,0,0,1,.65.34l10.07,37.26a.34.34,0,0,0,.51.2l104-63.33a.51.51,0,0,0,.21-.61L336.31,284.75a.58.58,0,0,0-.62-.37L247,296.51a.49.49,0,0,1-.56-.49V215.1a.5.5,0,0,0-.5-.5h-23a.5.5,0,0,1-.5-.5V24.29a.5.5,0,0,0-.5-.5H67.7a.2.2,0,0,0-.2.2v1.65a.2.2,0,0,0,.2.2H219.84a.5.5,0,0,1,.5.5V216.15a.5.5,0,0,0,.5.5h23a.5.5,0,0,1,.5.5v81.23a.5.5,0,0,0,.56.49l89.46-12.24a.6.6,0,0,1,.63.37l51.6,134.18a.51.51,0,0,1-.2.61l-100.19,61a.34.34,0,0,1-.51-.2l-9.94-36.78a.5.5,0,0,0-.66-.34l-18.51,6.82a.5.5,0,0,1-.65-.33l-25.3-87a.6.6,0,0,0-.58-.43H194a.39.39,0,0,0-.38.51L229,484.45a5.35,5.35,0,0,0,.49,1.12l52.25,88.14a.59.59,0,0,1,0,.56l-15,28.93a1.53,1.53,0,0,0-.14.41L243.12,734.77a2.69,2.69,0,0,0,0,.4l0,35.83a1.72,1.72,0,0,0,0,.39l16.28,76.32a1.16,1.16,0,0,1,0,.64l-50.43,154.27a.32.32,0,0,0,.3.41L744,1004a1.12,1.12,0,0,0,.92-.48l82-118.62a.65.65,0,0,1,.26-.23L1023,780.61a.49.49,0,0,0,.17-.65l-20.24-40.71a.5.5,0,0,1,.24-.68L1071,707.84a.53.53,0,0,1,.63.16l27.14,35.19a.62.62,0,0,0,.65.21l43.91-12.27Z" transform="translate(-67.5 -22.76)"/><path class="cls-1" d="M636.6,954.28l.8,1.44a.21.21,0,0,0,.28.08l33.87-18.93a.92.92,0,0,0,.37-.41l26.24-60.56a.49.49,0,0,0-.28-.67l-85.07-31.39a.48.48,0,0,0-.65.34l-7.82,29.32a.51.51,0,0,1-.53.37l-29.08-2.5a.5.5,0,0,0-.54.5v71a2.31,2.31,0,0,0,.1.64l12,36.62a.19.19,0,0,0,.25.12l1.57-.51a.19.19,0,0,0,.13-.25l-11.88-36.31a2,2,0,0,1-.1-.63V874.11a.49.49,0,0,1,.54-.5l28.56,2.45a.5.5,0,0,0,.53-.37l7.68-28.81a.51.51,0,0,1,.66-.34l80.91,29.86a.51.51,0,0,1,.29.67L670.31,935a.84.84,0,0,1-.37.42L636.67,954A.19.19,0,0,0,636.6,954.28Z" transform="translate(-67.5 -22.76)"/><path class="cls-1" d="M905.09,621.41l29.76,75.1a.49.49,0,0,0,.67.27L986.24,674a.21.21,0,0,0,.1-.27l-.68-1.5a.19.19,0,0,0-.26-.1L936.64,694a.49.49,0,0,1-.67-.27L907.1,621a1.82,1.82,0,0,1-.14-.52l-13.43-88a1.13,1.13,0,0,1,0-.26l6.11-56a.2.2,0,0,0-.18-.22l-1.64-.18a.2.2,0,0,0-.22.18l-6.14,56.27a1.22,1.22,0,0,0,0,.27l13.48,88.35A2.46,2.46,0,0,0,905.09,621.41Z" transform="translate(-67.5 -22.76)"/><path class="cls-1" d="M723,506.15l17.25,58.45a1.14,1.14,0,0,1-.12.9l-31,50a.93.93,0,0,0-.14.54l2.95,45.23a1.16,1.16,0,0,1-.22.77l-5.83,7.77a.5.5,0,0,0,.09.7L786.61,732a.7.7,0,0,1,.26.41l8.4,43.24a.24.24,0,0,0,.4.12L828.49,744a.8.8,0,0,1,.21-.15l102.64-45.4a.51.51,0,0,0,.27-.64L902,621.7a2.55,2.55,0,0,1-.15-.54l-7.46-53.45a.51.51,0,0,0-.5-.43h-5.67a.79.79,0,0,0-.68.38l-7.09,11.24a.68.68,0,0,1-.4.3l-19.74,5.93a.54.54,0,0,0-.38.53l3.82,101.09a.24.24,0,0,0,.36.2l21.34-13.22a.5.5,0,0,1,.7.19l1.24,2.32a.48.48,0,0,1-.17.65l-26.2,16.68a.23.23,0,0,1-.36-.18l-4.1-110.55a.53.53,0,0,1,.39-.53l20.5-5.86a.69.69,0,0,0,.41-.32l7.35-12.06a.78.78,0,0,1,.68-.38h7.19a.5.5,0,0,0,.49-.59l-4.55-31a1,1,0,0,1,0-.24l6.41-55.63a.2.2,0,0,0-.18-.22l-1.64-.19a.19.19,0,0,0-.22.17L887,531.91a1.93,1.93,0,0,0,0,.24l4.17,28.9a.5.5,0,0,1-.5.58h-5.88a.82.82,0,0,0-.69.39l-7.53,12.36a.67.67,0,0,1-.41.31l-21.27,6.08a.54.54,0,0,0-.39.54L858.77,697a.24.24,0,0,0,.36.19L890,677.6a.5.5,0,0,0,.18-.65L887,671a.5.5,0,0,0-.71-.19l-20.19,12.5a.23.23,0,0,1-.36-.19l-3.63-96a.54.54,0,0,1,.38-.53l19-5.69a.79.79,0,0,0,.4-.3l6.89-10.94a.82.82,0,0,1,.68-.38h2.75a.51.51,0,0,1,.5.43l7.25,51.92a2.39,2.39,0,0,0,.15.54l29,74.47a.5.5,0,0,1-.26.64L827.54,742.08a1.07,1.07,0,0,0-.22.15L797,771.64a.24.24,0,0,1-.4-.12l-7.83-40.29a.68.68,0,0,0-.25-.41L708.83,670.1a.51.51,0,0,1-.1-.7l5.06-6.75a1.11,1.11,0,0,0,.23-.76l-2.95-45.33a.88.88,0,0,1,.13-.55l31.13-50.21a1.14,1.14,0,0,0,.12-.9L725.07,506a1.24,1.24,0,0,1,0-.33l-.94-202.07a.2.2,0,0,0-.2-.2h-1.65a.2.2,0,0,0-.2.2L723,506Z" transform="translate(-67.5 -22.76)"/><path class="cls-1" d="M932.54,713.7l35-17.51a.51.51,0,0,1,.67.22l32.51,64a.52.52,0,0,1-.22.68L903.69,811a.5.5,0,0,1-.68-.24L873.7,747.07a.49.49,0,0,0-.68-.23l-51.53,26.27a1,1,0,0,0-.29.24l-52.19,71a.51.51,0,0,0,.13.72l45.5,30.22a.49.49,0,0,1,.14.7L737.46,989.47a.5.5,0,0,1-.7.13l-50.87-35.22a.5.5,0,0,1-.13-.69l83.38-120.53a.51.51,0,0,0-.12-.69l-34.08-24.78a.36.36,0,0,0-.55.14L676.18,940a.87.87,0,0,1-.37.41l-35.22,20.13a.19.19,0,0,0-.07.27l.82,1.43a.2.2,0,0,0,.27.08l35.81-20.46a.89.89,0,0,0,.36-.41L735.25,811a.36.36,0,0,1,.54-.15L766.19,833a.51.51,0,0,1,.12.69l-83.4,120.57a.5.5,0,0,0,.12.69l54.26,37.57a.51.51,0,0,0,.7-.13l79.66-116.9a.5.5,0,0,0-.14-.7l-45.45-30.18a.51.51,0,0,1-.12-.72L822.57,775a.68.68,0,0,1,.29-.24l49.19-25.08a.5.5,0,0,1,.68.23L902,813.6a.5.5,0,0,0,.69.23L1003.27,762a.5.5,0,0,0,.22-.67l-34.36-67.68a.5.5,0,0,0-.67-.22l-32.77,16.39a.28.28,0,0,1-.39-.33l2.44-8.33a1,1,0,0,1,.54-.61l50-22.54a.19.19,0,0,0,.1-.26l-.66-1.52a.21.21,0,0,0-.27-.1l-50.85,22.93a1,1,0,0,0-.54.63l-3.87,13.68A.28.28,0,0,0,932.54,713.7Z" transform="translate(-67.5 -22.76)"/><path class="cls-1" d="M805,877.43l-39.8-25.91a.49.49,0,0,0-.68.13l-67.67,99.2a.51.51,0,0,0,.12.69l38.86,27.61a.51.51,0,0,0,.71-.13l68.6-100.89A.49.49,0,0,0,805,877.43ZM699.69,950.34l65.4-95.87a.51.51,0,0,1,.69-.13L802.13,878a.49.49,0,0,1,.14.7L736,976.13a.5.5,0,0,1-.71.13L699.82,951A.5.5,0,0,1,699.69,950.34Z" transform="translate(-67.5 -22.76)"/><path class="cls-1" d="M830.32,746.23l-36,35-.12.14-29.88,40.85a.49.49,0,0,0,.08.67l6.8,5.67a.5.5,0,0,0,.72-.08L817.55,770a.81.81,0,0,1,.28-.24l109.81-53.9a.56.56,0,0,0,.29-.36l4-14.33a.24.24,0,0,0-.33-.29l-101,45.23A.8.8,0,0,0,830.32,746.23ZM926.2,714a.56.56,0,0,1-.29.35L816.5,768.1a.77.77,0,0,0-.28.23l-44.59,57.19a.49.49,0,0,1-.71.07l-3.69-3.07a.5.5,0,0,1-.08-.68l28.57-39.09a.86.86,0,0,1,.13-.14L831.49,748a.77.77,0,0,1,.21-.14l96.73-43.3a.25.25,0,0,1,.33.29Z" transform="translate(-67.5 -22.76)"/><path class="cls-1" d="M996.17,759l-29.5-57.92a.49.49,0,0,0-.67-.22l-89.87,44.33a.51.51,0,0,0-.23.66l28.17,60.5a.5.5,0,0,0,.68.24L996,759.67A.5.5,0,0,0,996.17,759Zm-30.39-55.2,27.6,54.31a.49.49,0,0,1-.22.67l-87.44,45a.5.5,0,0,1-.69-.23L878.61,746.8a.51.51,0,0,1,.23-.66l86.27-42.56A.5.5,0,0,1,965.78,703.8Z" transform="translate(-67.5 -22.76)"/><path class="cls-1" d="M689,662.79l-13,4.32a.48.48,0,0,0-.3.66l54.7,130a.36.36,0,0,0,.15.19l30.27,22.14a.51.51,0,0,0,.7-.11L792,778.44a.6.6,0,0,0,.1-.45L783,733.66a.66.66,0,0,0-.25-.4l-93-70.34A.82.82,0,0,0,689,662.79Zm71.41,154.48-28.15-20.59a.4.4,0,0,1-.15-.19L678.45,669a.51.51,0,0,1,.3-.67l9.83-3.27a.85.85,0,0,1,.77.12l91.52,69.23a.66.66,0,0,1,.25.4l8.73,42.68a.58.58,0,0,1-.1.46l-28.68,39.19A.51.51,0,0,1,760.37,817.27Z" transform="translate(-67.5 -22.76)"/><path class="cls-1" d="M570.29,467.46l-27.92,14a.49.49,0,0,0-.18.74L667.63,648.75a1.45,1.45,0,0,1,.2.34L673,661.56a.51.51,0,0,0,.62.28l13.73-4.55a.81.81,0,0,1,.78.14l13.63,10.7a.5.5,0,0,0,.7-.08l5.81-7.33a1.19,1.19,0,0,0,.24-.79l-2.88-44.85a1,1,0,0,1,.14-.56l31.06-48.94a1.08,1.08,0,0,0,.12-.91L719.55,506.4a.91.91,0,0,1,0-.33V303.61a.2.2,0,0,0-.2-.2h-1.65a.19.19,0,0,0-.2.2V506.37a1.19,1.19,0,0,0,0,.33l17.25,57.66a1.12,1.12,0,0,1-.13.91L703.7,614a1,1,0,0,0-.14.55l2.87,44.73a1.16,1.16,0,0,1-.24.79l-4.05,5.11a.5.5,0,0,1-.7.08l-12.89-10.12a.84.84,0,0,0-.78-.14l-13,4.3a.49.49,0,0,1-.62-.28l-4.57-11a1.63,1.63,0,0,0-.19-.34L545.31,482.91a.5.5,0,0,1,.18-.75l27.59-13.79a.52.52,0,0,0,.22-.68l-37-71.4a.8.8,0,0,1,0-.69L571,312a.2.2,0,0,0-.11-.26l-1.53-.63a.19.19,0,0,0-.26.1L534,395.7a.83.83,0,0,0,0,.69l36.47,70.4A.49.49,0,0,1,570.29,467.46Z" transform="translate(-67.5 -22.76)"/><path class="cls-1" d="M494,213.82l70.23,43.95a.2.2,0,0,0,.28-.07l.86-1.42a.21.21,0,0,0-.07-.27l-72.5-45.32a.32.32,0,0,0-.48.19l-26.89,89.37a1.41,1.41,0,0,0-.07.45L465,334.09a.78.78,0,0,0,.16.46l49.24,63.31a.61.61,0,0,0,.7.2L529.34,393a1,1,0,0,0,.6-.56l35.92-82.82a.19.19,0,0,0-.1-.26l-1.52-.66a.2.2,0,0,0-.26.1l-35.57,82a1,1,0,0,1-.6.56l-12,4.3a.61.61,0,0,1-.7-.21l-47.89-61.56a.78.78,0,0,1-.16-.47l.38-32.23a1.43,1.43,0,0,1,.07-.46L493.56,214A.33.33,0,0,1,494,213.82Z" transform="translate(-67.5 -22.76)"/><path class="cls-1" d="M565.09,463.59,530.7,398.13a.51.51,0,0,0-.63-.24L518,402.2a.51.51,0,0,0-.33.62L537.94,476a.69.69,0,0,0,1,.44l26-12.11A.5.5,0,0,0,565.09,463.59Zm-35.37-62.92,32.55,62a.5.5,0,0,1-.23.69l-21.81,10.18a.69.69,0,0,1-1-.45l-19.15-68.94a.52.52,0,0,1,.33-.63l8.63-3.07A.53.53,0,0,1,529.72,400.67Z" transform="translate(-67.5 -22.76)"/><path class="cls-1" d="M415.48,431.58l70.83,68.78a.81.81,0,0,0,.9.15l47-21.94a.75.75,0,0,0,.4-.88l-21-74.8a1.74,1.74,0,0,0-.33-.65l-50.65-65.1a.64.64,0,0,0-.65-.21l-73.17,21.26a.41.41,0,0,0-.26.53l26.49,72.2A1.72,1.72,0,0,0,415.48,431.58Zm46.39-92.08,49.55,63.68a1.74,1.74,0,0,1,.33.65l20.44,72.74a.73.73,0,0,1-.4.87l-44.16,20.61a.81.81,0,0,1-.9-.15l-69.48-67.46a1.83,1.83,0,0,1-.43-.67l-25.58-69.69a.41.41,0,0,1,.27-.53l69.71-20.25A.61.61,0,0,1,461.87,339.5Z" transform="translate(-67.5 -22.76)"/><path class="cls-1" d="M461.76,333.57l.27-33.09a.5.5,0,0,0-.5-.51H451a.59.59,0,0,1-.53-.32l-19.59-37.22a.88.88,0,0,0-.77-.46l-43.31.38a.5.5,0,0,0-.49.51l1,48.75a.43.43,0,0,1-.29.43l-14,5a.38.38,0,0,0-.23.5l14.14,36.39a.39.39,0,0,0,.48.24l74-20.1A.52.52,0,0,0,461.76,333.57Zm-72.37-20.52-1-48.16a.49.49,0,0,1,.49-.51l40-.34a.84.84,0,0,1,.77.46l19.58,37.21a.62.62,0,0,0,.53.32h9.72a.5.5,0,0,1,.5.5L459.72,332a.52.52,0,0,1-.38.5l-70.69,19.21a.42.42,0,0,1-.49-.25l-12.7-32.69a.4.4,0,0,1,.23-.51l13.4-4.78A.46.46,0,0,0,389.39,313.05Z" transform="translate(-67.5 -22.76)"/><path class="cls-1" d="M453.74,297h8.78a.35.35,0,0,0,.32-.24L489,209.4a.76.76,0,0,0,0-.21l0-59.29a.73.73,0,0,0-.13-.4l-11.2-16.3a.54.54,0,0,0-.44-.23H444.42a.5.5,0,0,0-.5.5l.05,88.28a.85.85,0,0,1,0,.23l-10,37.89a.7.7,0,0,0,.06.49l19.18,36.35A.62.62,0,0,0,453.74,297Zm-7.27-162h29.71a.53.53,0,0,1,.44.22l10.23,14.89a.72.72,0,0,1,.12.4v58.2a.71.71,0,0,1,0,.21l-25.63,85.78a.34.34,0,0,1-.32.24h-6a.59.59,0,0,1-.53-.32l-18.23-34.54a.72.72,0,0,1-.06-.5L446,222.24a.83.83,0,0,0,0-.22L446,135.53A.5.5,0,0,1,446.47,135Z" transform="translate(-67.5 -22.76)"/><path class="cls-1" d="M365.92,159.19l13,21a1.4,1.4,0,0,1,.22.68l3.08,38.95a.43.43,0,0,0,.43.4l57.06-.27a.51.51,0,0,0,.5-.5v-86a.51.51,0,0,0-.5-.5H364.17a.5.5,0,0,0-.5.54l2.1,25.22A1,1,0,0,0,365.92,159.19Zm72.25-23.66v81.91a.51.51,0,0,1-.49.5l-53.11.25a.43.43,0,0,1-.43-.4l-3-37.55a1.52,1.52,0,0,0-.22-.68l-13-21a1.05,1.05,0,0,1-.16-.46l-1.87-22.49a.5.5,0,0,1,.5-.54h71.27A.5.5,0,0,1,438.17,135.53Z" transform="translate(-67.5 -22.76)"/><path class="cls-1" d="M566.58,252.77l.9-1.39a.2.2,0,0,0-.07-.28l-38.47-23.67a.5.5,0,0,1-.13-.73l15.28-20a.19.19,0,0,0,0-.28l-1.32-1a.2.2,0,0,0-.28,0l-16.61,21.83a.49.49,0,0,0,.13.72l40.34,24.88A.2.2,0,0,0,566.58,252.77Z" transform="translate(-67.5 -22.76)"/><path class="cls-1" d="M480.15,129.58l12.7,18.56a.68.68,0,0,1,.12.4v57.59a.56.56,0,0,0,.26.47l29.47,18.87a.5.5,0,0,0,.67-.12L540,203.62a.2.2,0,0,0,0-.28l-1.29-1a.19.19,0,0,0-.28,0l-15.45,20.28a.5.5,0,0,1-.67.12l-27-17.26A.59.59,0,0,1,495,205V147.9a.73.73,0,0,0-.13-.4l-12.85-18.79a.89.89,0,0,1-.15-.31L471.25,87.74a.54.54,0,0,1,.19-.56l21-16.25a.2.2,0,0,0,0-.28l-1-1.3a.19.19,0,0,0-.28,0l-22.1,17.08a.53.53,0,0,0-.19.55L480,129.26A1.3,1.3,0,0,0,480.15,129.58Z" transform="translate(-67.5 -22.76)"/><path class="cls-1" d="M463.74,85.67l26.72-20.31a.2.2,0,0,0,0-.28l-1-1.32a.2.2,0,0,0-.28,0L461.39,84.88a.52.52,0,0,0-.19.56l10.9,39.9a.35.35,0,0,1-.34.45H337.52a.5.5,0,0,1-.5-.5V104.44a.5.5,0,0,1,.5-.5L381,104a.31.31,0,0,0,.3-.39L357.63,23.05a.2.2,0,0,0-.25-.13l-1.59.46a.21.21,0,0,0-.13.25l22.85,78a.3.3,0,0,1-.29.39l-42.76-.09a.51.51,0,0,0-.5.5v25a.5.5,0,0,0,.5.5h139a.35.35,0,0,0,.34-.45L463.55,86.23A.51.51,0,0,1,463.74,85.67Z" transform="translate(-67.5 -22.76)"/><path class="cls-1" d="M323.67,219.86a2.28,2.28,0,0,0,.14.77L407.87,437.1a1.68,1.68,0,0,0,.43.65l77,72.88a.79.79,0,0,0,.89.15l12.2-5.64a.52.52,0,0,1,.65.21l34.46,60.82a.5.5,0,0,0,.66.2l5.05-2.52a.5.5,0,0,0,.21-.7L505.3,502.47a.5.5,0,0,1,.22-.69l31-15.16a.5.5,0,0,1,.62.15l71.65,95.53a.52.52,0,0,1-.07.68l-42,36.5a.49.49,0,0,0,0,.7l4,4.65a.5.5,0,0,0,.71,0l41.15-36.7a.5.5,0,0,1,.73.07l49.23,65.64.19.34,62,149.73a.62.62,0,0,0,.22.26l1.43.94a.5.5,0,0,1,.18.62l-27.9,63.5a.5.5,0,0,1-.63.27l-90.13-33.39a.48.48,0,0,0-.65.34l-8,31.12a.49.49,0,0,1-.53.37l-29-3a.5.5,0,0,0-.55.5v78.13a2.1,2.1,0,0,0,.09.61l11.19,35.92a.19.19,0,0,0,.25.13l1.58-.49a.2.2,0,0,0,.13-.25L571.2,943.9a2,2,0,0,1-.09-.6V867.75a.49.49,0,0,1,.55-.49l28.55,3a.51.51,0,0,0,.53-.37l7.91-30.63a.5.5,0,0,1,.65-.35l89.81,33.28a.5.5,0,0,0,.63-.27L729.12,805a.5.5,0,0,0-.18-.62l-2.35-1.55a.51.51,0,0,1-.22-.26L664.54,653.32a1.25,1.25,0,0,0-.19-.34l-50.78-67.76a.5.5,0,0,0-.73-.07L571.59,622a.49.49,0,0,1-.71-.05l-1.3-1.51a.49.49,0,0,1,0-.7l41.9-36.41a.51.51,0,0,0,.08-.68l-73.82-98.42a.5.5,0,0,0-.62-.15l-34.51,16.86a.49.49,0,0,0-.21.69l34.13,60.7a.5.5,0,0,1-.22.69l-1.37.69a.5.5,0,0,1-.66-.2L499.89,502.7a.49.49,0,0,0-.64-.21l-12.66,5.84a.81.81,0,0,1-.89-.14l-75.65-71.62a1.72,1.72,0,0,1-.43-.64L325.87,220.24a2,2,0,0,1-.15-.76v-27a.5.5,0,0,0-.5-.5H251.78a.5.5,0,0,1-.5-.5v-6.39a.5.5,0,0,1,.5-.5H325.1a.5.5,0,0,0,.5-.5V111.81a.5.5,0,0,0-.5-.5H251.78a.51.51,0,0,1-.5-.5v-5.06a.51.51,0,0,1,.5-.5H325.1a.5.5,0,0,0,.5-.5V23.66a.2.2,0,0,0-.2-.2h-1.65a.2.2,0,0,0-.2.2v79a.51.51,0,0,1-.5.5H249.73a.5.5,0,0,0-.5.5v9.16a.5.5,0,0,0,.5.5h73.32a.5.5,0,0,1,.5.5v68.21a.51.51,0,0,1-.5.5H249.73a.5.5,0,0,0-.5.5v10.49a.5.5,0,0,0,.5.5h73.44a.5.5,0,0,1,.5.5Z" transform="translate(-67.5 -22.76)"/><path class="cls-1" d="M429.89,258.65l9.36-34.32A.29.29,0,0,0,439,224H383.26a.49.49,0,0,0-.48.53L386,258.57a.51.51,0,0,0,.5.46h42.87A.52.52,0,0,0,429.89,258.65Zm6.67-32.26-8.24,30.2a.51.51,0,0,1-.5.38H388.39a.49.49,0,0,1-.5-.45l-2.85-30a.48.48,0,0,1,.48-.52h50.76A.29.29,0,0,1,436.56,226.39Z" transform="translate(-67.5 -22.76)"/><path class="cls-1" d="M351.25,262.63l19.95,51a.39.39,0,0,0,.49.22L384,309.37a.46.46,0,0,0,.3-.43l-1.05-46.11a.51.51,0,0,0-.5-.49H351.45A.21.21,0,0,0,351.25,262.63ZM372.38,311l-18.12-46.3a.21.21,0,0,1,.19-.29H380.7a.5.5,0,0,1,.5.48l1,42.63a.44.44,0,0,1-.3.43l-9,3.28A.39.39,0,0,1,372.38,311Z" transform="translate(-67.5 -22.76)"/><path class="cls-1" d="M382.77,259a.5.5,0,0,0,.5-.55L376,181.9l0-.23-13.87-22.78a1.07,1.07,0,0,1-.14-.46l-1.91-25.06a.5.5,0,0,0-.5-.46H335.46a.5.5,0,0,0-.5.5V219a2.29,2.29,0,0,0,.13.73l14.43,38.9a.55.55,0,0,0,.52.37ZM337.52,135h20.16a.49.49,0,0,1,.49.46L360,159.08a1.07,1.07,0,0,0,.14.46l13.7,22.5a1.43,1.43,0,0,1,.21.64l7,73.75a.49.49,0,0,1-.5.54h-29a.55.55,0,0,1-.53-.36l-13.79-37.22a2,2,0,0,1-.13-.73v-83.2A.5.5,0,0,1,337.52,135Z" transform="translate(-67.5 -22.76)"/><path class="cls-1" d="M350.79,22.77l-1.58.46a.2.2,0,0,0-.14.25l20.68,71.86a.31.31,0,0,1-.3.39H337.52a.5.5,0,0,1-.5-.5V23.66a.2.2,0,0,0-.2-.2h-1.66a.2.2,0,0,0-.2.2V97.28a.5.5,0,0,0,.5.5h36.72a.31.31,0,0,0,.3-.39L351,22.91A.2.2,0,0,0,350.79,22.77Z" transform="translate(-67.5 -22.76)"/></svg>