<svg id="レイヤー_2" data-name="レイヤー 2" xmlns="http://www.w3.org/2000/svg" viewBox="0 0 1688.01 1374.71"><defs><style>.cls-1{fill:#333435;}.cls-2{fill:#c4b7b7;}.cls-3{fill:#e6605f;}.cls-4,.cls-5,.cls-6,.cls-8{fill:none;}.cls-5{stroke:#e6605f;}.cls-5,.cls-6,.cls-8{stroke-miterlimit:10;}.cls-6,.cls-8{stroke:#333435;}.cls-7{fill:#efe4d5;}.cls-8{stroke-linecap:round;}</style></defs><path class="cls-1" d="M750.82,991.82,697.1,954.63a.3.3,0,0,1-.08-.42l83.62-120.88a.3.3,0,0,0-.07-.41L749,810a.3.3,0,0,0-.45.13L690.83,941.16a.62.62,0,0,1-.25.28L654.5,962.05a.31.31,0,0,1-.41-.1L650,955.06a.3.3,0,0,1,.11-.42l33.85-18.92a.55.55,0,0,0,.26-.28l25.52-58.89a.3.3,0,0,0-.17-.4l-82.39-30.4a.3.3,0,0,0-.39.2l-7.82,29.32a.29.29,0,0,1-.31.22L589.54,873a.3.3,0,0,0-.33.3v69.57a.58.58,0,0,0,0,.19L601.5,980.5h-7l-11.4-36.67a1.1,1.1,0,0,1,0-.18V865.81a.31.31,0,0,1,.33-.3l29.31,3a.3.3,0,0,0,.32-.23l8.1-31.37a.29.29,0,0,1,.39-.21L712,870.24a.29.29,0,0,0,.38-.16l28.42-64.69a.29.29,0,0,0-.11-.37l-1.8-1.18a.58.58,0,0,1-.22-.27l-62-149.75a.54.54,0,0,0-.07-.13l-49.82-66.42a.3.3,0,0,0-.44,0l-41.48,37a.31.31,0,0,1-.43,0l-3.57-4.15a.31.31,0,0,1,0-.42l42.27-36.73a.3.3,0,0,0,0-.4L550.72,486a.29.29,0,0,0-.37-.09l-32.26,15.76a.3.3,0,0,0-.13.42l34.33,61.05a.3.3,0,0,1-.13.41l-4.46,2.23a.3.3,0,0,1-.4-.12l-34.64-61.12a.31.31,0,0,0-.39-.13l-12.61,5.83a.63.63,0,0,1-.67-.11l-76.94-72.84-.14-.22L337.73,220.24l0-.22V193.81a.31.31,0,0,0-.3-.3H263.55a.3.3,0,0,1-.3-.3v-9.84a.3.3,0,0,1,.3-.3h73.72a.31.31,0,0,0,.3-.3V113.11a.3.3,0,0,0-.3-.3H263.55a.31.31,0,0,1-.3-.3V104a.31.31,0,0,1,.3-.3h73.72a.3.3,0,0,0,.3-.3V23.23a.3.3,0,0,1,.3-.3h11.81a.3.3,0,0,1,.3.3v72.7a.3.3,0,0,0,.3.3h33.45a.26.26,0,0,0,.24-.32l-20.6-72.83a.25.25,0,0,1,.24-.32h6.7l23.76,80.4a.26.26,0,0,1-.24.32l-43.55-.09a.3.3,0,0,0-.3.3V126a.31.31,0,0,0,.3.3h135.8a.25.25,0,0,0,.24-.32l-11-40.31a.59.59,0,0,1,.21-.63l27.82-21.15a.29.29,0,0,1,.4,0l3.71,4.17a.29.29,0,0,1,0,.43l-23.05,18.4a.61.61,0,0,0-.2.62l10.77,41.12a.64.64,0,0,0,.08.19l12.88,18.82a.59.59,0,0,1,.1.34v57.24a.61.61,0,0,0,.28.5L536,223.52a.29.29,0,0,0,.39-.07l16.26-20.64a.3.3,0,0,1,.4-.06l4.27,2.8a.3.3,0,0,1,.08.43l-15,20a.3.3,0,0,0,.08.44L582,251.73a.3.3,0,0,1,.1.39l-2.23,4.27a.31.31,0,0,1-.43.12l-72.25-43.58a.26.26,0,0,0-.37.15L480.4,300.74a.88.88,0,0,0,0,.17L480,333.6a.61.61,0,0,0,.12.37L528.4,396a.6.6,0,0,0,.67.2l12.81-4.57a.61.61,0,0,0,.34-.33l35.9-82.75a.3.3,0,0,1,.4-.16l5.44,2.62a.29.29,0,0,1,.15.38l-35,84.26a.61.61,0,0,0,0,.51l37,71.41a.3.3,0,0,1-.13.41l-28.07,14a.29.29,0,0,0-.11.44L682.54,648.06a.54.54,0,0,1,.07.13l4.84,11.62a.3.3,0,0,0,.37.17l13.46-4.46a.56.56,0,0,1,.56.1l13.34,10.47a.3.3,0,0,0,.42-.05l4.75-6a.67.67,0,0,0,.13-.41l-2.9-45.08a.64.64,0,0,1,.09-.36l31.13-49.06a.57.57,0,0,0,.07-.49l-17.38-58.12a.47.47,0,0,1,0-.17V303.19a.3.3,0,0,1,.3-.3h5a.29.29,0,0,1,.3.3L738,505.82a.45.45,0,0,0,0,.16l17.41,59a.58.58,0,0,1-.06.48L724.1,615.94a.62.62,0,0,0-.08.35l3,45.62a.59.59,0,0,1-.12.4l-5.5,7.33a.3.3,0,0,0,.06.42l80.09,61.05a.64.64,0,0,1,.22.37l8,41a.25.25,0,0,0,.42.13l31-30a.57.57,0,0,1,.18-.12l101.75-45a.29.29,0,0,0,.16-.38L914,621.86a.5.5,0,0,1,0-.13L906.56,569a.3.3,0,0,0-.3-.26h-3.79a.62.62,0,0,0-.51.28l-7,11.15a.61.61,0,0,1-.34.25l-19.37,5.82a.29.29,0,0,0-.21.3L878.7,684a.25.25,0,0,0,.38.21l20.65-12.78a.3.3,0,0,1,.42.11L903,676.9a.3.3,0,0,1-.1.4l-29.78,19a.24.24,0,0,1-.38-.2L868.5,581.49a.31.31,0,0,1,.22-.3l21.3-6.08a.62.62,0,0,0,.35-.27l7.56-12.42a.59.59,0,0,1,.51-.28H905a.31.31,0,0,0,.3-.36L900,532.08a.54.54,0,0,1,0-.18l6.48-56.26a.29.29,0,0,1,.3-.26h5.57a.3.3,0,0,1,.3.33l-6.17,56.55a.76.76,0,0,0,0,.15L920,620.78l0,.13,29.25,73.73a.3.3,0,0,0,.4.16l49.82-22.36a.3.3,0,0,1,.4.15l1.6,3.66a.29.29,0,0,1-.15.39l-50.14,22.58a.6.6,0,0,0-.34.39L948,710.55a.25.25,0,0,0,.35.29L981.9,694a.29.29,0,0,1,.4.13l34.07,67.09a.3.3,0,0,1-.13.4l-100,51.53a.31.31,0,0,1-.41-.15l-29.48-64.1a.3.3,0,0,0-.41-.14l-50,25.5a.91.91,0,0,0-.21.18l-51.18,69.64a.31.31,0,0,0,.07.43L830.44,875a.3.3,0,0,1,.08.42L751.23,991.74A.28.28,0,0,1,750.82,991.82Zm-52.33-37.44,52.07,36a.29.29,0,0,0,.41-.08l78.15-114.69a.3.3,0,0,0-.08-.42L783.2,844.8a.3.3,0,0,1-.07-.43l52-70.67a.46.46,0,0,1,.21-.18l51.16-26.08a.29.29,0,0,1,.41.14l29.48,64.1a.3.3,0,0,0,.41.14l98.15-50.59a.31.31,0,0,0,.13-.4l-33.17-65.32a.3.3,0,0,0-.4-.14l-34.69,17.35a.25.25,0,0,1-.35-.29L950,698.89a.59.59,0,0,1,.33-.39L1000,676.13a.29.29,0,0,0,.15-.39l-.8-1.82a.3.3,0,0,0-.4-.16l-49.85,22.38a.3.3,0,0,1-.4-.16L919,621.11l0-.13-13.51-88.54a.43.43,0,0,1,0-.16l6.06-55.57a.3.3,0,0,0-.3-.33h-3.57a.3.3,0,0,0-.3.26L901,531.87a.54.54,0,0,0,0,.18l5.5,30.73a.31.31,0,0,1-.3.36H899a.6.6,0,0,0-.52.28L891,575.7a.61.61,0,0,1-.35.26l-20.92,6a.31.31,0,0,0-.22.3l4.16,112a.24.24,0,0,0,.38.2L901.6,677a.29.29,0,0,0,.1-.39L899.77,673a.3.3,0,0,0-.42-.11L878.15,686a.25.25,0,0,1-.38-.2L874,585.84a.29.29,0,0,1,.21-.3L894,579.62a.68.68,0,0,0,.34-.26l7.12-11.3a.61.61,0,0,1,.51-.28h5.21a.3.3,0,0,1,.3.26l7.46,53.44a.65.65,0,0,0,0,.13l29.57,76a.31.31,0,0,1-.16.38L841.87,743.35a.66.66,0,0,0-.17.12l-32.19,31.19a.25.25,0,0,1-.42-.14L800.83,732a.55.55,0,0,0-.22-.36L720,670.25a.31.31,0,0,1-.06-.42l5.88-7.83a.58.58,0,0,0,.12-.4L723,616a.6.6,0,0,1,.08-.35l31.2-50.33a.6.6,0,0,0,.07-.49L737,506.13a.47.47,0,0,1,0-.17l-.93-201.77a.29.29,0,0,0-.3-.3h-3a.3.3,0,0,0-.3.3v202a.57.57,0,0,0,0,.18L750,564.79a.6.6,0,0,1-.07.49l-31.2,49.17a.67.67,0,0,0-.09.36L721.5,660a.61.61,0,0,1-.13.41l-5.61,7.08a.3.3,0,0,1-.42,0l-13.69-10.76a.59.59,0,0,0-.56-.09l-13.83,4.58a.29.29,0,0,1-.37-.17l-5.15-12.36a.57.57,0,0,0-.08-.13L556.34,482.15a.31.31,0,0,1,.1-.45l28.24-14.12a.3.3,0,0,0,.13-.41l-36.74-70.92a.61.61,0,0,1,0-.51l34.78-83.81a.31.31,0,0,0-.15-.39L579,309.79a.3.3,0,0,0-.41.15L543,392.13a.57.57,0,0,1-.35.33l-13.89,5a.61.61,0,0,1-.68-.19l-48.93-62.92a.65.65,0,0,1-.13-.38l.41-33.24a.88.88,0,0,1,0-.17l26.77-89a.25.25,0,0,1,.37-.15L579,255.1a.29.29,0,0,0,.42-.12l1.32-2.51a.3.3,0,0,0-.1-.39L541,226.69a.31.31,0,0,1-.08-.44l15-20a.3.3,0,0,0-.07-.43l-2.62-1.72a.31.31,0,0,0-.4.07l-16.25,20.63a.31.31,0,0,1-.4.07l-29-18.55a.61.61,0,0,1-.28-.51V148.32a.57.57,0,0,0-.1-.34l-12.82-18.79A.66.66,0,0,1,494,129L483,87.17a.62.62,0,0,1,.2-.63L506,68.4a.29.29,0,0,0,0-.43l-2.39-2.69a.29.29,0,0,0-.4,0L476.66,85.41a.6.6,0,0,0-.21.64L487.63,127a.25.25,0,0,1-.24.32H349.28a.31.31,0,0,1-.3-.3v-24.3a.3.3,0,0,1,.3-.3l43.21.08a.25.25,0,0,0,.24-.32L369.56,23.76h-4.63a.25.25,0,0,0-.24.32l20.6,72.83a.25.25,0,0,1-.24.32H349.28a.3.3,0,0,1-.3-.3V24.23a.3.3,0,0,0-.3-.3h-9.81a.3.3,0,0,0-.3.3V104.4a.3.3,0,0,1-.3.3H264.55a.31.31,0,0,0-.3.3v6.51a.31.31,0,0,0,.3.3h73.72a.3.3,0,0,1,.3.3v71.66a.31.31,0,0,1-.3.3H264.55a.3.3,0,0,0-.3.3v7.84a.3.3,0,0,0,.3.3h73.84a.31.31,0,0,1,.3.3v27a.54.54,0,0,0,0,.22l84,216.4a.64.64,0,0,0,.14.22l76.29,72.21a.58.58,0,0,0,.66.11l12.84-5.92a.3.3,0,0,1,.39.12L547.7,564.3a.31.31,0,0,0,.4.12l2.67-1.34a.3.3,0,0,0,.13-.42L516.57,501.6a.28.28,0,0,1,.13-.41l33.95-16.59a.28.28,0,0,1,.37.09l73.48,98a.31.31,0,0,1,0,.41l-42.22,36.68a.3.3,0,0,0,0,.42l2.25,2.62a.3.3,0,0,0,.43,0l41.54-37a.3.3,0,0,1,.44,0l50.57,67.45a.54.54,0,0,1,.07.13L739.43,802.9a.61.61,0,0,0,.23.27l2.25,1.48a.3.3,0,0,1,.11.37l-29.14,66.33a.3.3,0,0,1-.38.16l-90.28-33.45a.3.3,0,0,0-.39.21l-8,31.14a.29.29,0,0,1-.32.22l-29.06-3a.3.3,0,0,0-.33.3v76.65a1.1,1.1,0,0,0,0,.18l11.14,35.75h4.88l-11.88-36.37a.58.58,0,0,1,0-.19V872.2a.3.3,0,0,1,.33-.3l29.33,2.52a.29.29,0,0,0,.31-.22l7.89-29.57a.29.29,0,0,1,.39-.2l84.4,31.15a.3.3,0,0,1,.18.4L685,936.14a.73.73,0,0,1-.26.29L651.46,955a.3.3,0,0,0-.11.42l3.1,5.16a.29.29,0,0,0,.4.11l34.95-20a.62.62,0,0,0,.25-.28l58.09-131.9a.3.3,0,0,1,.45-.13L782,832.69a.3.3,0,0,1,.07.41L698.41,954A.3.3,0,0,0,698.49,954.38Z" transform="translate(0.01 350.71)"/><path class="cls-2" d="M748.4,1024a1,1,0,0,1-.82-1.57L839.05,885a6.08,6.08,0,0,1,1.73-1.66l185.39-116.91a3,3,0,0,0,1.06-3.91l-11.05-21.45a3,3,0,0,1,1.43-4.11L1083,707.36a3,3,0,0,1,3.62.9l25,32.45a3,3,0,0,0,3.18,1.06l22.13-5.5a5.88,5.88,0,0,0,2-.9l95.94-66.56a5.94,5.94,0,0,1,2.56-1l60-8.71a5.91,5.91,0,0,1,1.26-.05l73.54,4.9a6,6,0,0,0,1.64-.11l77.77-16.53a6,6,0,0,1,2.82.08l39.5,10.78a6,6,0,0,1,4.12,3.89l4.87,14.61a6,6,0,0,0,4.57,4l14.88,2.83a3,3,0,0,0,3.44-2.08l4.5-15a6.06,6.06,0,0,1,2.91-3.56l50.75-27.25a6,6,0,0,1,2.26-.69L1688,625v396a3,3,0,0,1-3,3Z" transform="translate(0.01 350.71)"/><path class="cls-2" d="M223.05,1019.87,273.52,849.6a6,6,0,0,0,.16-3.11l-16-74.81a5.83,5.83,0,0,1-.13-1.25V735.66a5.44,5.44,0,0,1,.1-1.06l23.36-130a6,6,0,0,1,.57-1.7l14.22-27.49a3,3,0,0,0-.08-2.91L244,485.24a5.82,5.82,0,0,1-.59-1.35l-34.76-117.1a1,1,0,0,1,1-1.29h29.06a6,6,0,0,1,5.76,4.33l24.12,82.94a1,1,0,0,0,1.3.66l15.43-5.68a3,3,0,0,1,3.93,2l9.06,33.54a1,1,0,0,0,1.49.59l99.55-60.63a3,3,0,0,0,1.24-3.64l-50.77-132a3,3,0,0,0-3.2-1.9L260,297.58a1,1,0,0,1-1.13-1v-78a3,3,0,0,0-3-3h-18a3,3,0,0,1-3-3V27.79a3,3,0,0,0-3-3H3a3,3,0,0,0-3,3V1021a3,3,0,0,0,3,3l214.38.06A6,6,0,0,0,223.05,1019.87Z" transform="translate(0.01 350.71)"/><path class="cls-1" d="M749.37,978.5,711,951.27a.3.3,0,0,1-.07-.41l67.3-98.67a.3.3,0,0,1,.41-.08l39.26,25.56a.29.29,0,0,1,.08.42L749.79,978.43A.3.3,0,0,1,749.37,978.5Zm-37-27.48,36.7,26.08a.31.31,0,0,0,.42-.08l67.08-98.65a.29.29,0,0,0-.08-.42L779,853.48a.3.3,0,0,0-.41.08l-66.2,97.05A.3.3,0,0,0,712.42,951Z" transform="translate(0.01 350.71)"/><path class="cls-1" d="M784.8,827.88l-6.3-5.25a.31.31,0,0,1,0-.41l29.61-40.5.07-.07,36-35a.66.66,0,0,1,.17-.12l99.94-44.74a.25.25,0,0,1,.34.3l-3.59,13a.59.59,0,0,1-.32.37L830.94,769.31l-.21.17-45.5,58.36A.3.3,0,0,1,784.8,827.88Zm-4.94-5.42,4.79,4a.3.3,0,0,0,.43,0l45-57.72a.47.47,0,0,1,.2-.17l109.54-53.78a.57.57,0,0,0,.31-.37l2.91-10.52a.25.25,0,0,0-.34-.29l-97.83,43.79a.57.57,0,0,0-.18.12L808.88,782.3l-.07.07-29,39.69A.3.3,0,0,0,779.86,822.46Z" transform="translate(0.01 350.71)"/><path class="cls-1" d="M917.9,805.8,890,745.89a.3.3,0,0,1,.14-.4l89.3-44a.31.31,0,0,1,.4.13L1010,758.92a.3.3,0,0,1-.13.41l-91.59,46.61A.29.29,0,0,1,917.9,805.8Zm-26.57-59.45,27,58.09a.29.29,0,0,0,.41.14l89.76-45.68a.3.3,0,0,0,.13-.41L979.41,702.9a.29.29,0,0,0-.39-.13L891.47,746A.29.29,0,0,0,891.33,746.35Z" transform="translate(0.01 350.71)"/><path class="cls-1" d="M774.78,819.43a.3.3,0,0,1-.42.07L744.5,797.66a.55.55,0,0,1-.2-.25L689.81,667.87a.31.31,0,0,1,.18-.4l12.48-4.16a.6.6,0,0,1,.55.09l92.74,70.15a.61.61,0,0,1,.23.36l9,43.92a.59.59,0,0,1-.1.48ZM745.32,797l28.82,21.08a.3.3,0,0,0,.42-.06l29.24-40a.61.61,0,0,0,.11-.47l-8.82-43.12a.61.61,0,0,0-.23-.36l-92-69.6a.58.58,0,0,0-.55-.09l-11,3.65a.31.31,0,0,0-.18.4l54,128.29A.55.55,0,0,0,745.32,797Z" transform="translate(0.01 350.71)"/><path class="cls-1" d="M551.91,475.69l-20.2-72.76a.3.3,0,0,1,.19-.36l11.59-4.12a.31.31,0,0,1,.37.14L578,463.51a.3.3,0,0,1-.14.41l-25.56,11.93A.26.26,0,0,1,551.91,475.69Zm-19-72.13,19.64,70.72a.25.25,0,0,0,.35.16l23.54-11a.3.3,0,0,0,.13-.41l-33.21-63.23a.29.29,0,0,0-.36-.14l-9.9,3.52A.3.3,0,0,0,532.92,403.56Z" transform="translate(0.01 350.71)"/><path class="cls-1" d="M500,499.8,429.2,431a.54.54,0,0,1-.15-.22L402.7,358.94a.31.31,0,0,1,.2-.4l72.84-19.74a.61.61,0,0,1,.63.21l50.12,63.74a.51.51,0,0,1,.1.21l20.95,74.54a.6.6,0,0,1-.32.7l-46.53,21.72A.61.61,0,0,1,500,499.8ZM430.1,430.52l70.12,68.09a.61.61,0,0,0,.67.11L546,477.65a.59.59,0,0,0,.33-.7l-20.69-73.62a.53.53,0,0,0-.11-.21l-49.56-63a.57.57,0,0,0-.62-.21l-71.15,19.28a.3.3,0,0,0-.21.39L430,430.29A.57.57,0,0,0,430.1,430.52Z" transform="translate(0.01 350.71)"/><path class="cls-1" d="M400.76,353.36l-13.83-35.61a.3.3,0,0,1,.18-.39l14.23-5.08-1-49.13a.29.29,0,0,1,.29-.3l42.82-.37a.57.57,0,0,1,.53.32l19.67,37.36a.6.6,0,0,0,.53.32h10.53a.29.29,0,0,1,.3.3l-.26,32.3a.6.6,0,0,1-.44.58l-73.17,19.88A.31.31,0,0,1,400.76,353.36Zm-12.52-35,13.13,33.81a.31.31,0,0,0,.36.18l71.56-19.45a.6.6,0,0,0,.45-.57l.25-30.54a.3.3,0,0,0-.3-.3H463.55a.62.62,0,0,1-.53-.32L443.36,263.8a.59.59,0,0,0-.53-.32l-41.2.36a.29.29,0,0,0-.29.3l1,48.84-13.94,5A.3.3,0,0,0,388.24,318.35Z" transform="translate(0.01 350.71)"/><path class="cls-1" d="M475.42,296.48h-7.87a.62.62,0,0,1-.53-.32l-18.95-35.92a.58.58,0,0,1-.05-.43l10-37.9-.05-88.13a.29.29,0,0,1,.3-.3h32.2a.6.6,0,0,1,.5.26l10.95,15.93a.59.59,0,0,1,.1.34l0,59a.88.88,0,0,1,0,.17l-26,86.85A.6.6,0,0,1,475.42,296.48Zm-7.26-1h6.51a.61.61,0,0,0,.58-.43L501,209a1.1,1.1,0,0,0,0-.18V150.32a.59.59,0,0,0-.1-.34l-10.48-15.24a.59.59,0,0,0-.5-.26H459.24a.29.29,0,0,0-.3.3L459,222l-9.9,37.65a.59.59,0,0,0,.05.43l18.49,35A.6.6,0,0,0,468.16,295.48Z" transform="translate(0.01 350.71)"/><path class="cls-1" d="M396.23,219.42l-3.08-38.94a.5.5,0,0,0-.08-.26l-13.2-21.32a.62.62,0,0,1-.09-.26l-2.06-24.84a.29.29,0,0,1,.3-.32h74.87a.29.29,0,0,1,.3.3v85.35a.3.3,0,0,1-.3.3l-56.36.27A.3.3,0,0,1,396.23,219.42Zm-15.47-61.11a.62.62,0,0,0,.09.27L394,179.9a.51.51,0,0,1,.09.26l3,38.26a.3.3,0,0,0,.3.27l54.44-.26a.29.29,0,0,0,.3-.3V134.78a.29.29,0,0,0-.3-.3H379.1a.31.31,0,0,0-.3.32Z" transform="translate(0.01 350.71)"/><path class="cls-1" d="M442.42,258.48H400.31a.31.31,0,0,1-.3-.28l-3.17-33.4a.29.29,0,0,1,.3-.32h54.68a.24.24,0,0,1,.24.31L443,258A.62.62,0,0,1,442.42,258.48Zm-41.2-1h40.43a.61.61,0,0,0,.58-.45l8.52-31.24a.24.24,0,0,0-.24-.31H398.24a.29.29,0,0,0-.3.32l3,31.4A.31.31,0,0,0,401.22,257.48Z" transform="translate(0.01 350.71)"/><path class="cls-1" d="M385,313l-19.49-49.8a.26.26,0,0,1,.23-.35h30.12a.3.3,0,0,1,.3.3l1,45.73-11.81,4.29A.3.3,0,0,1,385,313Zm-18-48.8,18.6,47.53a.3.3,0,0,0,.38.17l10.22-3.72-1-44a.29.29,0,0,0-.3-.3H367.23A.25.25,0,0,0,367,264.19Z" transform="translate(0.01 350.71)"/><path class="cls-1" d="M395.91,258.48h-32a.61.61,0,0,1-.57-.4L349,219.3a.78.78,0,0,1,0-.21V133.71a.3.3,0,0,1,.3-.3h23.49a.3.3,0,0,1,.3.28l1.9,25a.62.62,0,0,0,.09.27l13.85,22.76a.53.53,0,0,1,.08.25l7.21,76.2A.3.3,0,0,1,395.91,258.48Zm-31.29-1h30.19a.31.31,0,0,0,.3-.33L388,182.27a.58.58,0,0,0-.09-.25l-13.85-22.76A.66.66,0,0,1,374,159l-1.85-24.3a.3.3,0,0,0-.3-.28H350.28a.3.3,0,0,0-.3.3V219a.78.78,0,0,0,0,.21l14,37.87A.6.6,0,0,0,364.62,257.48Z" transform="translate(0.01 350.71)"/><path class="cls-3" d="M748.64,857.8V874a.29.29,0,0,0,.3.3h10.91a.35.35,0,0,0,.36-.35V848.43a1.17,1.17,0,0,0-.53-1l-17-11.27a1,1,0,0,0-1.16,0l-17,11.27a1.16,1.16,0,0,0-.52,1v25.48a.34.34,0,0,0,.35.35h11.15a.3.3,0,0,0,.3-.3V857.8a.29.29,0,0,1,.3-.3h12.3A.3.3,0,0,1,748.64,857.8Z" transform="translate(0.01 350.71)"/><rect class="cls-4" x="56.62" y="54.4" width="199.39" height="11.31"/><rect class="cls-4" x="213.52" y="18.39" width="22.35" height="20.15"/><rect class="cls-4" x="43.01" y="67.71" width="239" height="5"/><rect class="cls-4" x="43.01" y="74.71" width="239" height="9"/><rect class="cls-4" x="56.62" y="40.54" width="199.39" height="4.86"/><rect class="cls-4" x="56.62" y="14.71" width="53.39" height="23.83"/><rect class="cls-4" x="56.62" y="47.4" width="199.39" height="5"/><rect class="cls-4" x="56.62" y="10.71" width="53.39" height="2"/><polygon class="cls-4" points="303.05 85.71 32.01 85.71 32.01 94.71 296.54 94.71 303.05 85.71"/><polygon class="cls-4" points="287.86 106.71 32.01 106.71 32.01 114.71 282.07 114.71 287.86 106.71"/><polygon class="cls-4" points="32.01 116.71 32.01 125.71 274.11 125.71 280.62 116.71 32.01 116.71"/><rect class="cls-4" x="213.52" y="14.17" width="22.35" height="2.22"/><polygon class="cls-4" points="295.09 96.71 32.01 96.71 32.01 104.71 289.31 104.71 295.09 96.71"/><polygon class="cls-3" points="296.54 94.71 32.01 94.71 32.01 96.71 295.09 96.71 296.54 94.71"/><polygon class="cls-3" points="289.31 104.71 32.01 104.71 32.01 106.71 287.86 106.71 289.31 104.71"/><polygon class="cls-3" points="282.07 114.71 32.01 114.71 32.01 116.71 280.62 116.71 282.07 114.71"/><rect class="cls-3" x="43.01" y="72.71" width="239" height="2"/><rect class="cls-3" x="213.52" y="16.39" width="22.35" height="2"/><rect class="cls-3" x="56.62" y="12.71" width="53.39" height="2"/><rect class="cls-3" x="56.62" y="45.4" width="199.39" height="2"/><rect class="cls-3" x="56.62" y="52.4" width="199.39" height="2"/><path class="cls-1" d="M284-267v-18H258v-27.17H237.86v-26.37H211.51v26.37H112V-342H54.61v57H41v18H30v44H275.13L307-267Zm-70.49-65.32v-4.22h22.35v24.37H213.51ZM56.61-336v-4H110v27.83H56.61Zm0,39.69v-13.86H256V-285H56.61ZM43-276v-7H282v16H43Zm231.11,51H32v-40H303l-6.51,9-1.45,2-5.78,8-1.45,2-5.79,8-1.44,2Z" transform="translate(0.01 350.71)"/><rect class="cls-4" x="269.96" y="607.51" width="42.24" height="1.07"/><rect class="cls-4" x="269.96" y="609.58" width="42.24" height="1.11"/><rect class="cls-4" x="269.96" y="611.69" width="42.24" height="3.02"/><rect class="cls-4" x="267.04" y="615.72" width="50.74" height="1.11"/><rect class="cls-4" x="269.96" y="600.71" width="10.89" height="5.8"/><rect class="cls-4" x="303.65" y="599.54" width="4.23" height="1.17"/><rect class="cls-4" x="269.96" y="598.49" width="10.89" height="1.21"/><rect class="cls-4" x="303.65" y="601.71" width="4.23" height="4.8"/><polygon class="cls-4" points="318.93 627.5 264.68 627.5 264.68 629.52 317.89 629.52 318.93 627.5"/><polygon class="cls-4" points="264.68 630.52 264.68 632.84 316.18 632.84 317.37 630.52 264.68 630.52"/><polygon class="cls-4" points="320.48 624.48 264.68 624.48 264.68 626.5 319.44 626.5 320.48 624.48"/><polygon class="cls-4" points="322.19 621.15 264.68 621.15 264.68 623.48 320.99 623.48 322.19 621.15"/><rect class="cls-4" x="267.04" y="617.83" width="50.74" height="2.32"/><polygon class="cls-3" points="320.99 623.48 264.68 623.48 264.68 624.48 320.48 624.48 320.99 623.48"/><polygon class="cls-3" points="319.44 626.5 264.68 626.5 264.68 627.5 318.93 627.5 319.44 626.5"/><polygon class="cls-3" points="317.89 629.52 264.68 629.52 264.68 630.52 317.37 630.52 317.89 629.52"/><rect class="cls-3" x="267.04" y="616.83" width="50.74" height="1"/><rect class="cls-3" x="303.65" y="600.71" width="4.23" height="1"/><rect class="cls-3" x="269.96" y="599.71" width="10.89" height="1"/><rect class="cls-3" x="269.96" y="608.58" width="42.24" height="1"/><rect class="cls-3" x="269.96" y="610.69" width="42.24" height="1"/><path class="cls-1" d="M318.78,269.45V264h-5.59V255.8h-4.32v-8h-6.23v8H281.85v-9H269V264H266v5.44h-2.36v13.69h53.11l7-13.69ZM303.64,251v-2.17h4.23v7h-4.23ZM270,250v-2.21h10.89v8H270Zm0,11V256.8h42.23V264H270ZM267,267.12V265h50.75v4.44H267Zm49.14,15h-51.5V270.45h57.51L321,272.77l-.52,1-1,2-.51,1-1,2-.51,1Z" transform="translate(0.01 350.71)"/><line class="cls-5" x1="53.98" y1="215.96" x2="111.09" y2="215.96"/><line class="cls-5" x1="53.98" y1="218.99" x2="109.59" y2="218.99"/><line class="cls-5" x1="53.98" y1="222.01" x2="108.09" y2="222.01"/><line class="cls-5" x1="56.34" y1="209.32" x2="108.09" y2="209.32"/><line class="cls-5" x1="98.18" y1="193.19" x2="93.06" y2="193.19"/><line class="cls-5" x1="71.16" y1="192.19" x2="59.35" y2="192.19"/><line class="cls-5" x1="102.51" y1="201.07" x2="59.27" y2="201.07"/><line class="cls-5" x1="102.51" y1="203.18" x2="59.27" y2="203.18"/><polygon class="cls-6" points="53.98 225.33 106.29 225.33 112.81 212.64 53.98 212.64 53.98 225.33"/><polyline class="cls-6" points="108.09 212.64 108.09 207.2 56.34 207.2 56.34 212.64"/><polyline class="cls-6" points="59.27 207.2 59.27 199 102.51 199 102.51 207.2"/><polyline class="cls-6" points="71.16 199.05 71.16 189.98 59.27 189.98 59.27 199"/><polyline class="cls-6" points="92.95 199 92.95 191.03 98.18 191.03 98.18 199"/><path class="cls-1" d="M469.09-182.68H532.7a.29.29,0,0,0,.3-.3V-292.72a.3.3,0,0,0-.28-.3l-55.44-3a.3.3,0,0,1-.28-.3v-54.13a.3.3,0,0,0-.3-.3H405.3a.3.3,0,0,0-.3.3v56.13a.3.3,0,0,1-.28.3l-55.82,3a.31.31,0,0,0-.29.3V-183a.3.3,0,0,0,.3.3h66.37a.29.29,0,0,0,.3-.3V-224.2a.29.29,0,0,1,.3-.3H468.2a.29.29,0,0,1,.3.3l.29,41.22A.29.29,0,0,0,469.09-182.68Z" transform="translate(0.01 350.71)"/><circle class="cls-7" cx="441.01" cy="31.71" r="20"/><polyline class="cls-8" points="440.51 19.21 440.51 32.21 450.51 32.21"/><path class="cls-1" d="M784.92,656.13H767.24a.59.59,0,0,1-.58-.58L766.58,644h-13.7v11.51a.58.58,0,0,1-.59.59H733.86a.59.59,0,0,1-.59-.59V624.36a.58.58,0,0,1,.55-.58l15.12-.84V609.09a.58.58,0,0,1,.58-.59h19.84a.58.58,0,0,1,.58.59v13.27l15,.84a.58.58,0,0,1,.55.58v31.76A.58.58,0,0,1,784.92,656.13Zm-17.26-1H784.5v-31l-15-.83a.59.59,0,0,1-.55-.59V609.5h-19v13.83a.6.6,0,0,1-.56.59l-15.11.83v30.38h17.61V643.61a.58.58,0,0,1,.58-.58H767a.58.58,0,0,1,.58.58Zm-1.08-11.51Zm-17.25-20.7h0Zm20.21-.58h0Z" transform="translate(0.01 350.71)"/><path class="cls-1" d="M759.73,622.14a4.82,4.82,0,1,1,4.82-4.82A4.83,4.83,0,0,1,759.73,622.14Zm0-8.64a3.82,3.82,0,1,0,3.82,3.82A3.82,3.82,0,0,0,759.73,613.5Z" transform="translate(0.01 350.71)"/><path class="cls-1" d="M761.79,617.93h-2.66v-3.31a.5.5,0,0,1,.5-.5.5.5,0,0,1,.5.5v2.31h1.66a.5.5,0,0,1,.5.5A.51.51,0,0,1,761.79,617.93Z" transform="translate(0.01 350.71)"/></svg>