<svg id="レイヤー_2" data-name="レイヤー 2" xmlns="http://www.w3.org/2000/svg" viewBox="0 0 1280 1024"><defs><style>.cls-1{fill:#7f7373;}.cls-2{fill:#c4b7b7;}.cls-3{fill:#efe4d5;}.cls-4{fill:#e6605f;}.cls-5,.cls-6{fill:#333435;}.cls-6{font-size:12px;font-family:KozGoPr6N-Regular-90ms-RKSJ-H, Kozuka Gothic Pr6N;}</style></defs><polygon class="cls-1" points="493 68 469.56 86.71 480.56 128.71 493.56 147.71 493.55 205.58 522.41 224.06 539 203 542.95 205.58 527.54 226.12 567.59 251.79 565.53 255.71 492.64 211.74 465.94 300.48 465.56 333.71 514.56 396.71 528.56 391.71 564.56 308.71 569.64 311.15 534.56 395.71 571.69 467.4 542.95 481.77 668.21 648.1 673.34 660.42 687.56 655.71 701.56 666.71 707.07 659.75 704.14 614.22 735.56 564.71 718.03 506.1 718.03 303.12 722.62 303.12 723.56 505.71 741.03 564.94 709.56 615.71 712.56 661.71 706.56 669.71 787.31 731.27 795.56 773.71 827.56 742.71 930.02 697.39 900.48 621.41 893.02 568.02 887.93 568.02 880.56 579.71 860.56 585.71 864.31 685.07 885.87 671.72 888.56 676.71 859.3 695.33 855.07 581.37 876.63 575.21 884.45 562.37 892.03 562.37 886.56 531.71 893.02 475.61 898.19 475.61 892.03 532.08 905.56 620.71 935.16 695.33 985.56 672.71 987 676 936.56 698.71 933.1 711.76 968.01 694.31 1001.89 761.04 902.3 812.38 872.56 747.71 821.56 773.71 769.72 844.24 816.06 875.01 737 991.03 683.61 954.07 767.56 832.71 734.56 808.71 676.42 940.72 640.49 961.26 636.56 954.71 670.56 935.71 696.56 875.71 612.56 844.71 604.56 874.71 574.77 872.15 574.77 942.77 586.87 979.74 580.93 979.74 569.64 943.48 569.64 865.77 599.42 868.85 607.63 837.02 698.56 870.71 727.56 804.71 725.16 803.14 663.07 653.24 612.65 586.01 570.67 623.46 567.37 619.62 610.05 582.54 536.78 484.85 503.17 501.28 537.81 562.88 533.71 564.94 498.8 503.33 485.45 509.5 408.44 436.6 324.25 219.78 324.25 192.75 249.81 192.75 249.81 183.3 324.13 183.3 324.13 112.04 249.81 112.04 249.81 103.94 324.13 103.94 324.13 23.17 335.55 23.17 335.55 96.47 370.78 96.47 350 23 356 23 379.56 102.71 335.55 102.62 335.55 126.53 473.13 126.53 461.83 85.2 489.56 64.13 493 68"/><path class="cls-2" d="M1141.29,730.21l-40.42,11.3a3,3,0,0,1-3.19-1.06l-25-32.46a3,3,0,0,0-3.61-.9l-65.37,29.62a3,3,0,0,0-1.43,4.1l11.06,21.46a3,3,0,0,1-1.07,3.91L826.85,883.08a6,6,0,0,0-1.74,1.67l-80.47,116.39a1,1,0,0,0,.82,1.57h394.1a3,3,0,0,0,3-3V731.17A1,1,0,0,0,1141.29,730.21Z"/><path class="cls-2" d="M211.11,997.61l48.47-148.27a5.91,5.91,0,0,0,.16-3.12l-16-74.8a5.84,5.84,0,0,1-.14-1.25V735.4a6.24,6.24,0,0,1,.1-1.06l23.36-130a5.92,5.92,0,0,1,.57-1.69l14.23-27.5a3,3,0,0,0-.09-2.9L230.1,485a6.22,6.22,0,0,1-.59-1.35L194.75,366.52a1,1,0,0,1,1-1.28h29.07a6,6,0,0,1,5.76,4.32l24.11,82.95a1,1,0,0,0,1.3.66l15.43-5.68a3,3,0,0,1,3.93,2l9.07,33.53a1,1,0,0,0,1.48.6L385.42,423a3,3,0,0,0,1.24-3.64l-50.77-132a3,3,0,0,0-3.21-1.89l-86.63,11.84a1,1,0,0,1-1.13-1v-78a3,3,0,0,0-3-3h-18a3,3,0,0,1-3-3V27.52a3,3,0,0,0-3-3H70.06a3,3,0,0,0-3,3V999.69a3,3,0,0,0,3,3l135.37-1A6,6,0,0,0,211.11,997.61Z"/><polygon class="cls-3" points="764.64 852.37 697.56 950.71 735.56 977.71 803.56 877.71 764.64 852.37"/><polygon class="cls-3" points="765.03 822.1 771.03 827.1 816.56 768.71 926.56 714.71 930.02 702.18 830.56 746.71 794.56 781.71 765.03 822.1"/><polygon class="cls-3" points="876.61 745.59 965.56 701.71 995.56 758.71 904.33 805.14 876.61 745.59"/><polygon class="cls-3" points="790.56 777.71 760.56 818.71 730.84 796.98 676.42 667.61 688.74 663.5 781.56 733.71 790.56 777.71"/><polygon class="cls-3" points="538.38 475.01 563.48 463.29 529.56 398.71 518.3 402.71 538.38 475.01"/><polygon class="cls-3" points="512.14 402.71 462 339 389.31 358.7 415.63 430.44 486.48 499.23 533.14 477.45 512.14 402.71"/><polygon class="cls-3" points="460.29 332.89 387.23 352.75 373.54 317.5 387.91 312.36 386.88 263.08 429.56 262.71 449.56 300.71 460.56 300.71 460.29 332.89"/><polygon class="cls-3" points="461.56 295.71 487.56 208.71 487.56 149.71 476.56 133.71 444.5 133.71 444.56 221.71 434.56 259.71 453.56 295.71 461.56 295.71"/><polygon class="cls-3" points="438.76 133.71 438.76 218.67 382.78 218.93 379.69 179.91 366.35 158.35 364.3 133.71 438.76 133.71"/><polygon class="cls-3" points="386.56 257.71 428.56 257.71 437.56 224.71 383.42 224.71 386.56 257.71"/><polygon class="cls-3" points="381.75 263.08 382.78 308.26 371.48 312.36 352.19 263.08 381.75 263.08"/><polygon class="cls-3" points="381.75 257.71 349.92 257.71 335.55 218.93 335.55 133.65 358.65 133.65 360.56 158.71 374.56 181.71 381.75 257.71"/><path class="cls-4" d="M740.7,874H710.3a.29.29,0,0,1-.3-.3V851.92a1,1,0,0,1,.45-.84L725,841.44a.91.91,0,0,1,1,0l14.55,9.64a1,1,0,0,1,.45.84V873.7A.29.29,0,0,1,740.7,874Z"/><circle class="cls-5" cx="263.5" cy="279.5" r="6.5"/><circle class="cls-5" cx="725.5" cy="649.5" r="6.5"/><text class="cls-6" transform="translate(278.27 283.56)">男木港</text><text class="cls-6" transform="translate(739.26 653.56)">男木島小・中学校</text></svg>